# Blender 5.1.2
# www.blender.org
mtllib Character.mtl
o Sphere
v 0.000000 0.000000 -1.000000
v 0.000000 -0.195090 -0.980785
v 0.000000 -0.555570 -0.831470
v 0.000000 -1.000000 0.000000
v 0.195090 0.000000 -0.980785
v 0.191342 -0.195090 -0.961940
v 0.180240 -0.382683 -0.906127
v 0.162212 -0.555570 -0.815493
v 0.137950 -0.707107 -0.693520
v 0.108386 -0.831470 -0.544895
v 0.074658 -0.923880 -0.375330
v 0.038060 -0.980785 -0.191342
v 0.382683 0.000000 -0.923879
v 0.375330 -0.195090 -0.906127
v 0.353553 -0.382683 -0.853553
v 0.318190 -0.555570 -0.768178
v 0.270598 -0.707107 -0.653281
v 0.212608 -0.831470 -0.513280
v 0.146447 -0.923880 -0.353553
v 0.074658 -0.980785 -0.180240
v 0.555570 0.000000 -0.831469
v 0.544895 -0.195090 -0.815493
v 0.513280 -0.382683 -0.768178
v 0.461940 -0.555570 -0.691342
v 0.392847 -0.707107 -0.587938
v 0.308658 -0.831470 -0.461940
v 0.212608 -0.923880 -0.318190
v 0.108386 -0.980785 -0.162212
v 0.707107 0.000000 -0.707107
v 0.693520 -0.195090 -0.693520
v 0.653281 -0.382683 -0.653281
v 0.587938 -0.555570 -0.587938
v 0.500000 -0.707107 -0.500000
v 0.392847 -0.831470 -0.392847
v 0.270598 -0.923880 -0.270598
v 0.137950 -0.980785 -0.137950
v 0.831470 0.000000 -0.555570
v 0.815493 -0.195090 -0.544895
v 0.768178 -0.382683 -0.513280
v 0.691342 -0.555570 -0.461940
v 0.587938 -0.707107 -0.392847
v 0.461940 -0.831470 -0.308658
v 0.318190 -0.923880 -0.212608
v 0.162212 -0.980785 -0.108386
v 0.923879 0.000000 -0.382683
v 0.906127 -0.195090 -0.375330
v 0.853553 -0.382683 -0.353553
v 0.768178 -0.555570 -0.318190
v 0.653281 -0.707107 -0.270598
v 0.513280 -0.831470 -0.212607
v 0.353553 -0.923880 -0.146447
v 0.180240 -0.980785 -0.074658
v 0.980785 0.000000 -0.195090
v 0.961940 -0.195090 -0.191342
v 0.906127 -0.382683 -0.180240
v 0.815493 -0.555570 -0.162212
v 0.693520 -0.707107 -0.137950
v 0.544895 -0.831470 -0.108386
v 0.375330 -0.923880 -0.074658
v 0.191342 -0.980785 -0.038060
v 1.000000 0.000000 0.000000
v 0.980785 -0.195090 0.000000
v 0.923879 -0.382683 -0.000000
v 0.831469 -0.555570 0.000000
v 0.707107 -0.707107 -0.000000
v 0.555570 -0.831470 0.000000
v 0.382683 -0.923880 0.000000
v 0.195090 -0.980785 0.000000
v 0.980785 0.000000 0.195090
v 0.961940 -0.195090 0.191342
v 0.906127 -0.382683 0.180240
v 0.815493 -0.555570 0.162212
v 0.693520 -0.707107 0.137950
v 0.544895 -0.831470 0.108386
v 0.375330 -0.923880 0.074658
v 0.191342 -0.980785 0.038060
v 0.923879 0.000000 0.382683
v 0.906127 -0.195090 0.375330
v 0.853553 -0.382683 0.353553
v 0.768178 -0.555570 0.318190
v 0.653281 -0.707107 0.270598
v 0.513280 -0.831470 0.212608
v 0.353553 -0.923880 0.146447
v 0.180240 -0.980785 0.074658
v 0.831469 0.000000 0.555570
v 0.815493 -0.195090 0.544895
v 0.768178 -0.382683 0.513280
v 0.691341 -0.555570 0.461940
v 0.587938 -0.707107 0.392847
v 0.461940 -0.831470 0.308658
v 0.318190 -0.923880 0.212608
v 0.162212 -0.980785 0.108386
v 0.707106 0.000000 0.707107
v 0.693520 -0.195090 0.693520
v 0.653281 -0.382683 0.653281
v 0.587938 -0.555570 0.587938
v 0.500000 -0.707107 0.500000
v 0.392847 -0.831470 0.392847
v 0.270598 -0.923880 0.270598
v 0.137950 -0.980785 0.137950
v 0.555570 0.000000 0.831469
v 0.544895 -0.195090 0.815493
v 0.513280 -0.382683 0.768178
v 0.461940 -0.555570 0.691342
v 0.392847 -0.707107 0.587938
v 0.308658 -0.831470 0.461940
v 0.212607 -0.923880 0.318190
v 0.108386 -0.980785 0.162212
v 0.382683 0.000000 0.923879
v 0.375330 -0.195090 0.906127
v 0.353553 -0.382683 0.853553
v 0.318189 -0.555570 0.768178
v 0.270598 -0.707107 0.653281
v 0.212607 -0.831470 0.513280
v 0.146447 -0.923880 0.353553
v 0.074658 -0.980785 0.180240
v 0.195090 0.000000 0.980785
v 0.191342 -0.195090 0.961939
v 0.180240 -0.382683 0.906127
v 0.162212 -0.555570 0.815493
v 0.137950 -0.707107 0.693520
v 0.108386 -0.831470 0.544895
v 0.074658 -0.923880 0.375330
v 0.038060 -0.980785 0.191342
v -0.000000 0.000000 0.999999
v -0.000000 -0.195090 0.980785
v 0.000000 -0.382683 0.923879
v -0.000000 -0.555570 0.831469
v -0.000000 -0.707107 0.707107
v -0.000000 -0.831470 0.555570
v -0.000000 -0.923880 0.382683
v -0.000000 -0.980785 0.195090
v -0.195091 0.000000 0.980785
v -0.191342 -0.195090 0.961939
v -0.180240 -0.382683 0.906127
v -0.162212 -0.555570 0.815493
v -0.137950 -0.707107 0.693520
v -0.108386 -0.831470 0.544895
v -0.074658 -0.923880 0.375330
v -0.038060 -0.980785 0.191342
v -0.382683 0.000000 0.923879
v -0.375330 -0.195090 0.906127
v -0.353553 -0.382683 0.853553
v -0.318190 -0.555570 0.768177
v -0.270598 -0.707107 0.653281
v -0.212608 -0.831470 0.513280
v -0.146447 -0.923880 0.353553
v -0.074658 -0.980785 0.180240
v -0.555570 0.000000 0.831469
v -0.544895 -0.195090 0.815493
v -0.513280 -0.382683 0.768178
v -0.461940 -0.555570 0.691341
v -0.392847 -0.707107 0.587938
v -0.308658 -0.831470 0.461939
v -0.212608 -0.923880 0.318190
v -0.108386 -0.980785 0.162212
v -0.707106 0.000000 0.707106
v -0.693520 -0.195090 0.693520
v -0.653281 -0.382683 0.653281
v -0.587938 -0.555570 0.587937
v -0.500000 -0.707107 0.500000
v -0.392847 -0.831470 0.392847
v -0.270598 -0.923880 0.270598
v -0.137950 -0.980785 0.137950
v -0.831469 0.000000 0.555569
v -0.815493 -0.195090 0.544895
v -0.768177 -0.382683 0.513280
v -0.691341 -0.555570 0.461939
v -0.587938 -0.707107 0.392847
v -0.461940 -0.831470 0.308658
v -0.318190 -0.923880 0.212607
v -0.162212 -0.980785 0.108386
v -0.923879 0.000000 0.382683
v -0.906127 -0.195090 0.375330
v -0.853553 -0.382683 0.353553
v -0.768177 -0.555570 0.318189
v -0.653281 -0.707107 0.270598
v -0.513280 -0.831470 0.212607
v -0.353553 -0.923880 0.146447
v -0.180240 -0.980785 0.074658
v -0.980784 0.000000 0.195090
v -0.961939 -0.195090 0.191341
v -0.906127 -0.382683 0.180240
v -0.815493 -0.555570 0.162211
v -0.693520 -0.707107 0.137950
v -0.544895 -0.831470 0.108386
v -0.375330 -0.923880 0.074658
v -0.191342 -0.980785 0.038060
v -0.999999 0.000000 -0.000000
v -0.980785 -0.195090 -0.000000
v -0.923879 -0.382683 -0.000000
v -0.831469 -0.555570 -0.000000
v -0.707107 -0.707107 -0.000000
v -0.555570 -0.831470 -0.000000
v -0.382683 -0.923880 -0.000000
v -0.195090 -0.980785 -0.000000
v -0.980784 0.000000 -0.195091
v -0.961939 -0.195090 -0.191342
v -0.906127 -0.382683 -0.180240
v -0.815493 -0.555570 -0.162212
v -0.693520 -0.707107 -0.137950
v -0.544895 -0.831470 -0.108386
v -0.375330 -0.923880 -0.074658
v -0.191342 -0.980785 -0.038060
v -0.923878 0.000000 -0.382683
v -0.906127 -0.195090 -0.375330
v -0.853553 -0.382683 -0.353553
v -0.768177 -0.555570 -0.318190
v -0.653281 -0.707107 -0.270598
v -0.513279 -0.831470 -0.212607
v -0.353553 -0.923880 -0.146447
v -0.180240 -0.980785 -0.074658
v -0.831468 0.000000 -0.555570
v -0.815493 -0.195090 -0.544895
v -0.768177 -0.382683 -0.513280
v -0.691341 -0.555570 -0.461940
v -0.587938 -0.707107 -0.392847
v -0.461939 -0.831470 -0.308658
v -0.318189 -0.923880 -0.212607
v -0.162212 -0.980785 -0.108386
v -0.707106 0.000000 -0.707106
v -0.693519 -0.195090 -0.693520
v -0.653281 -0.382683 -0.653281
v -0.587937 -0.555570 -0.587938
v -0.500000 -0.707107 -0.500000
v -0.392847 -0.831470 -0.392847
v -0.270598 -0.923880 -0.270598
v -0.137950 -0.980785 -0.137950
v -0.555569 0.000000 -0.831469
v -0.544895 -0.195090 -0.815493
v -0.513280 -0.382683 -0.768177
v -0.461939 -0.555570 -0.691341
v -0.392847 -0.707107 -0.587938
v -0.308658 -0.831470 -0.461939
v -0.212607 -0.923880 -0.318190
v -0.108386 -0.980785 -0.162212
v -0.382683 0.000000 -0.923879
v -0.375330 -0.195090 -0.906127
v -0.353553 -0.382683 -0.853553
v -0.318189 -0.555570 -0.768177
v -0.270598 -0.707107 -0.653281
v -0.212607 -0.831470 -0.513279
v -0.146446 -0.923880 -0.353553
v -0.074658 -0.980785 -0.180240
v -0.195090 0.000000 -0.980784
v -0.191341 -0.195090 -0.961939
v -0.180240 -0.382683 -0.906127
v -0.162211 -0.555570 -0.815493
v -0.137950 -0.707107 -0.693520
v -0.108386 -0.831470 -0.544895
v -0.074658 -0.923880 -0.375330
v -0.038060 -0.980785 -0.191342
v 0.000000 -0.382683 -0.923879
v 0.000000 -0.707107 -0.707107
v 0.000000 -0.831470 -0.555570
v 0.000000 -0.923880 -0.382683
v 0.000000 -0.980785 -0.195090
v -0.000000 3.947557 0.003519
v -0.000000 3.770556 -0.579974
v -0.000000 3.480791 -0.869739
v -0.000000 3.102194 -1.026559
v -0.000000 2.897299 -1.046740
v 0.039973 3.927376 -0.197439
v 0.078410 3.867610 -0.390675
v 0.113833 3.770556 -0.568762
v 0.144882 3.639943 -0.724856
v 0.170364 3.480791 -0.852960
v 0.189298 3.299215 -0.948149
v 0.200958 3.102194 -1.006767
v 0.204895 2.897299 -1.026559
v 0.078410 3.927376 -0.185780
v 0.153806 3.867610 -0.367804
v 0.223292 3.770556 -0.535558
v 0.284197 3.639943 -0.682596
v 0.334181 3.480791 -0.803266
v 0.371322 3.299215 -0.892933
v 0.394193 3.102194 -0.948149
v 0.401916 2.897299 -0.966793
v 0.113833 3.927376 -0.166845
v 0.223292 3.867610 -0.330663
v 0.324170 3.770556 -0.481637
v 0.412591 3.639943 -0.613968
v 0.485156 3.480791 -0.722569
v 0.539076 3.299215 -0.803266
v 0.572280 3.102194 -0.852960
v 0.583492 2.897299 -0.869739
v 0.144882 3.927376 -0.141364
v 0.284197 3.867610 -0.280679
v 0.412591 3.770556 -0.409073
v 0.525129 3.639943 -0.521610
v 0.617486 3.480791 -0.613968
v 0.686114 3.299215 -0.682596
v 0.728375 3.102194 -0.724856
v 0.742644 2.897299 -0.739126
v 0.170364 3.927376 -0.110315
v 0.334181 3.867610 -0.219774
v 0.485156 3.770556 -0.320652
v 0.617486 3.639943 -0.409073
v 0.726087 3.480791 -0.481637
v 0.806785 3.299215 -0.535558
v 0.856478 3.102194 -0.568762
v 0.873257 2.897299 -0.579973
v 0.189298 3.927376 -0.074891
v 0.371322 3.867610 -0.150288
v 0.539076 3.770556 -0.219774
v 0.686114 3.639943 -0.280679
v 0.806785 3.480791 -0.330662
v 0.896451 3.299215 -0.367804
v 0.951667 3.102194 -0.390675
v 0.970312 2.897299 -0.398398
v 0.200958 3.927376 -0.036454
v 0.394193 3.867610 -0.074891
v 0.572280 3.770556 -0.110315
v 0.728375 3.639943 -0.141364
v 0.856478 3.480791 -0.166845
v 0.951667 3.299215 -0.185780
v 1.010285 3.102194 -0.197439
v 1.030077 2.897299 -0.201376
v 0.204895 3.927376 0.003519
v 0.401916 3.867610 0.003519
v 0.583492 3.770556 0.003519
v 0.742644 3.639943 0.003519
v 0.873257 3.480791 0.003519
v 0.970312 3.299215 0.003519
v 1.030077 3.102194 0.003519
v 1.050258 2.897299 0.003519
v 0.200958 3.927376 0.043492
v 0.394193 3.867610 0.081929
v 0.572280 3.770556 0.117352
v 0.728375 3.639943 0.148402
v 0.856478 3.480791 0.173883
v 0.951667 3.299215 0.192817
v 1.010285 3.102194 0.204477
v 1.030077 2.897299 0.208414
v 0.189298 3.927376 0.081929
v 0.371322 3.867610 0.157326
v 0.539076 3.770556 0.226812
v 0.686114 3.639943 0.287717
v 0.806784 3.480791 0.337700
v 0.896451 3.299215 0.374841
v 0.951667 3.102194 0.397713
v 0.970311 2.897299 0.405435
v 0.170364 3.927376 0.117352
v 0.334181 3.867610 0.226812
v 0.485155 3.770556 0.327690
v 0.617486 3.639943 0.416110
v 0.726087 3.480791 0.488675
v 0.806785 3.299215 0.542595
v 0.856478 3.102194 0.575799
v 0.873257 2.897299 0.587011
v 0.144882 3.927376 0.148402
v 0.284197 3.867610 0.287717
v 0.412591 3.770556 0.416110
v 0.525129 3.639943 0.528648
v 0.617486 3.480791 0.621005
v 0.686114 3.299215 0.689633
v 0.728374 3.102194 0.731894
v 0.742644 2.897299 0.746163
v 0.113833 3.927376 0.173883
v 0.223292 3.867610 0.337700
v 0.324170 3.770556 0.488675
v 0.412591 3.639943 0.621005
v 0.485155 3.480791 0.729606
v 0.539076 3.299215 0.810304
v 0.572280 3.102194 0.859997
v 0.583491 2.897299 0.876776
v 0.078409 3.927376 0.192817
v 0.153806 3.867610 0.374841
v 0.223292 3.770556 0.542595
v 0.284197 3.639943 0.689633
v 0.334181 3.480791 0.810304
v 0.371322 3.299215 0.899970
v 0.394193 3.102194 0.955186
v 0.401915 2.897299 0.973831
v 0.039973 3.927376 0.204477
v 0.078409 3.867610 0.397712
v 0.113833 3.770556 0.575799
v 0.144882 3.639943 0.731894
v 0.170364 3.480791 0.859997
v 0.189298 3.299215 0.955186
v 0.200958 3.102194 1.013804
v 0.204894 2.897299 1.033596
v -0.000000 3.927376 0.208414
v -0.000001 3.867610 0.405435
v -0.000001 3.770556 0.587011
v -0.000001 3.639943 0.746163
v -0.000001 3.480791 0.876776
v -0.000000 3.299215 0.973831
v -0.000001 3.102194 1.033596
v -0.000001 2.897299 1.053776
v -0.039974 3.927376 0.204477
v -0.078411 3.867610 0.397712
v -0.113834 3.770556 0.575799
v -0.144883 3.639943 0.731894
v -0.170365 3.480791 0.859997
v -0.189299 3.299215 0.955186
v -0.200959 3.102194 1.013804
v -0.204896 2.897299 1.033596
v -0.078410 3.927376 0.192817
v -0.153807 3.867610 0.374841
v -0.223293 3.770556 0.542595
v -0.284198 3.639943 0.689633
v -0.334182 3.480791 0.810304
v -0.371323 3.299215 0.899970
v -0.394194 3.102194 0.955186
v -0.401917 2.897299 0.973830
v -0.113834 3.927376 0.173883
v -0.223293 3.867610 0.337700
v -0.324171 3.770556 0.488674
v -0.412592 3.639943 0.621005
v -0.485156 3.480791 0.729606
v -0.539077 3.299215 0.810304
v -0.572281 3.102194 0.859997
v -0.583493 2.897299 0.876776
v -0.144883 3.927376 0.148401
v -0.284198 3.867610 0.287716
v -0.412592 3.770556 0.416110
v -0.525130 3.639943 0.528648
v -0.617487 3.480791 0.621005
v -0.686115 3.299215 0.689633
v -0.728375 3.102194 0.731893
v -0.742645 2.897299 0.746163
v -0.170365 3.927376 0.117352
v -0.334182 3.867610 0.226811
v -0.485156 3.770556 0.327689
v -0.617487 3.639943 0.416110
v -0.726088 3.480791 0.488675
v -0.806785 3.299215 0.542595
v -0.856479 3.102194 0.575799
v -0.873258 2.897299 0.587010
v -0.189299 3.927376 0.081929
v -0.371323 3.867610 0.157325
v -0.539077 3.770556 0.226811
v -0.686115 3.639943 0.287717
v -0.806785 3.480791 0.337700
v -0.896452 3.299215 0.374841
v -0.951668 3.102194 0.397712
v -0.970312 2.897299 0.405434
v -0.200959 3.927376 0.043492
v -0.394194 3.867610 0.081929
v -0.572281 3.770556 0.117352
v -0.728375 3.639943 0.148402
v -0.856479 3.480791 0.173883
v -0.951668 3.299215 0.192817
v -1.010285 3.102194 0.204477
v -1.030078 2.897299 0.208413
v -0.204896 3.927376 0.003519
v -0.401917 3.867610 0.003519
v -0.583492 3.770556 0.003519
v -0.742645 3.639943 0.003519
v -0.873258 3.480791 0.003519
v -0.970312 3.299215 0.003519
v -1.030078 3.102194 0.003518
v -1.050258 2.897299 0.003518
v -0.200959 3.927376 -0.036454
v -0.394194 3.867610 -0.074891
v -0.572281 3.770556 -0.110315
v -0.728375 3.639943 -0.141364
v -0.856478 3.480791 -0.166846
v -0.951668 3.299215 -0.185780
v -1.010285 3.102194 -0.197440
v -1.030077 2.897299 -0.201377
v -0.189299 3.927376 -0.074891
v -0.371323 3.867610 -0.150288
v -0.539077 3.770556 -0.219774
v -0.686115 3.639943 -0.280679
v -0.806785 3.480791 -0.330663
v -0.896452 3.299215 -0.367804
v -0.951668 3.102194 -0.390675
v -0.970312 2.897299 -0.398398
v -0.170364 3.927376 -0.110315
v -0.334182 3.867610 -0.219774
v -0.485156 3.770556 -0.320652
v -0.617487 3.639943 -0.409073
v -0.726087 3.480791 -0.481637
v -0.806785 3.299215 -0.535558
v -0.856478 3.102194 -0.568762
v -0.873257 2.897299 -0.579973
v -0.144883 3.927376 -0.141364
v -0.284198 3.867610 -0.280679
v -0.412591 3.770556 -0.409072
v -0.525129 3.639943 -0.521610
v -0.617487 3.480791 -0.613968
v -0.686114 3.299215 -0.682595
v -0.728375 3.102194 -0.724856
v -0.742644 2.897299 -0.739126
v -0.113834 3.927376 -0.166845
v -0.223293 3.867610 -0.330662
v -0.324171 3.770556 -0.481637
v -0.412592 3.639943 -0.613968
v -0.485156 3.480791 -0.722568
v -0.539077 3.299215 -0.803266
v -0.572281 3.102194 -0.852959
v -0.583492 2.897299 -0.869738
v -0.078410 3.927376 -0.185780
v -0.153807 3.867610 -0.367804
v -0.223293 3.770556 -0.535557
v -0.284198 3.639943 -0.682595
v -0.334181 3.480791 -0.803266
v -0.371323 3.299215 -0.892932
v -0.394194 3.102194 -0.948149
v -0.401916 2.897299 -0.966793
v -0.039974 3.927376 -0.197439
v -0.078410 3.867610 -0.390675
v -0.113834 3.770556 -0.568761
v -0.144883 3.639943 -0.724856
v -0.170364 3.480791 -0.852959
v -0.189299 3.299215 -0.948149
v -0.200958 3.102194 -1.006766
v -0.204895 2.897299 -1.026558
v -0.000000 3.927376 -0.201376
v -0.000000 3.867610 -0.398398
v -0.000000 3.639943 -0.739126
v -0.000000 3.299215 -0.966793
v 0.195090 1.620508 -0.980785
v -0.707106 1.620508 -0.707106
v 0.707106 1.620508 0.707107
v 0.980785 1.620508 -0.195090
v -0.980785 1.620508 0.195090
v 0.831469 1.620508 0.555570
v 0.923879 1.620508 0.382683
v -0.382684 1.620508 0.923879
v 0.195090 1.620508 0.980785
v -0.831469 1.620508 -0.555570
v -0.923879 1.620508 -0.382684
v 0.923879 1.620508 -0.382683
v 0.831469 1.620508 -0.555570
v -0.923879 1.620508 0.382683
v -0.831469 1.620508 0.555569
v -0.382683 1.620508 -0.923879
v -0.555569 1.620508 -0.831469
v 0.382683 1.620508 -0.923880
v -0.195091 1.620508 0.980784
v -0.000001 1.620508 0.999999
v 0.382683 1.620508 0.923879
v 0.555569 1.620508 0.831469
v 0.980785 1.620508 0.195090
v 0.999999 1.620508 0.000000
v -0.980784 1.620508 -0.195091
v -0.999999 1.620508 -0.000001
v -0.000000 1.620508 -1.000000
v -0.195090 1.620508 -0.980784
v -0.707107 1.620508 0.707106
v -0.555570 1.620508 0.831469
v 0.707107 1.620508 -0.707107
v 0.555570 1.620508 -0.831470
v -0.742644 2.046323 -0.739126
v 0.742644 2.046323 0.746164
v 1.030077 2.046323 -0.201376
v -1.030077 2.046323 0.208413
v 0.970311 2.046323 0.405435
v -0.401917 2.046323 0.973830
v 0.204894 2.046323 1.033596
v -0.970311 2.046323 -0.398398
v 0.873258 2.046323 -0.579973
v -0.873258 2.046323 0.587010
v -0.583492 2.046323 -0.869738
v 0.401916 2.046323 -0.966793
v -0.000001 2.046323 1.053777
v 0.583491 2.046323 0.876777
v 1.050258 2.046323 0.003519
v -1.050258 2.046323 0.003518
v -0.204895 2.046323 -1.026558
v -0.583493 2.046323 0.876776
v 0.583492 2.046323 -0.869739
v 0.204895 2.046323 -1.026559
v 0.873257 2.046323 0.587011
v -0.873257 2.046323 -0.579973
v 0.970312 2.046323 -0.398397
v -0.970312 2.046323 0.405434
v -0.401916 2.046323 -0.966792
v -0.204896 2.046323 1.033596
v 0.401916 2.046323 0.973831
v 1.030077 2.046323 0.208414
v -1.030077 2.046323 -0.201377
v -0.000000 2.046323 -1.046739
v -0.742645 2.046323 0.746163
v 0.742644 2.046323 -0.739126
v 0.204895 1.620835 -1.026559
v 0.873257 1.620835 0.587011
v -0.873257 1.620835 -0.579973
v 0.970312 1.620835 -0.398397
v -0.970312 1.620835 0.405434
v -0.401916 1.620835 -0.966792
v -0.204896 1.620835 1.033596
v 0.401916 1.620835 0.973831
v 1.030077 1.620835 0.208414
v -1.030077 1.620835 -0.201377
v -0.000000 1.620835 -1.046739
v -0.742645 1.620835 0.746163
v 0.742645 1.620835 -0.739126
v -0.742644 1.620835 -0.739126
v 0.742644 1.620835 0.746164
v 1.030077 1.620835 -0.201376
v -1.030077 1.620835 0.208413
v 0.970311 1.620835 0.405435
v -0.401917 1.620835 0.973830
v 0.204895 1.620835 1.033596
v -0.970311 1.620835 -0.398398
v 0.873258 1.620835 -0.579973
v -0.873258 1.620835 0.587010
v -0.583492 1.620835 -0.869738
v 0.401916 1.620835 -0.966793
v -0.000001 1.620835 1.053777
v 0.583491 1.620835 0.876777
v 1.050258 1.620835 0.003519
v -1.050258 1.620835 0.003518
v -0.204895 1.620835 -1.026558
v -0.583493 1.620835 0.876776
v 0.583492 1.620835 -0.869739
vn -0.0000 -0.8286 -0.5598
vn -0.0000 -0.7041 -0.7101
vn 0.1385 -0.7041 -0.6965
vn 0.1092 -0.8286 -0.5490
vn -0.0000 -0.9217 -0.3879
vn 0.0757 -0.9217 -0.3804
vn -0.0000 -0.9796 -0.2010
vn 0.0392 -0.9796 -0.1971
vn -0.0000 -1.0000 -0.0000
vn -0.0000 -0.1939 -0.9810
vn -0.0000 -0.0489 -0.9988
vn 0.1949 -0.0489 -0.9796
vn 0.1914 -0.1939 -0.9622
vn -0.0000 -0.3805 -0.9248
vn 0.1804 -0.3805 -0.9070
vn -0.0000 -0.5528 -0.8333
vn 0.1626 -0.5528 -0.8173
vn 0.3189 -0.5528 -0.7699
vn 0.2718 -0.7041 -0.6561
vn 0.2142 -0.8286 -0.5172
vn 0.1484 -0.9217 -0.3584
vn 0.0769 -0.9796 -0.1857
vn 0.3822 -0.0489 -0.9228
vn 0.3754 -0.1939 -0.9063
vn 0.3539 -0.3805 -0.8544
vn 0.1117 -0.9796 -0.1671
vn 0.5549 -0.0489 -0.8305
vn 0.5450 -0.1939 -0.8157
vn 0.5138 -0.3805 -0.7689
vn 0.4630 -0.5528 -0.6929
vn 0.3945 -0.7041 -0.5905
vn 0.3110 -0.8286 -0.4654
vn 0.2155 -0.9217 -0.3225
vn 0.5893 -0.5528 -0.5893
vn 0.5021 -0.7041 -0.5021
vn 0.3958 -0.8286 -0.3958
vn 0.2743 -0.9217 -0.2743
vn 0.1421 -0.9796 -0.1421
vn 0.7063 -0.0489 -0.7063
vn 0.6937 -0.1939 -0.6937
vn 0.6539 -0.3805 -0.6539
vn 0.1671 -0.9796 -0.1117
vn 0.8305 -0.0489 -0.5549
vn 0.8157 -0.1939 -0.5450
vn 0.7689 -0.3805 -0.5138
vn 0.6929 -0.5528 -0.4630
vn 0.5905 -0.7041 -0.3945
vn 0.4654 -0.8286 -0.3110
vn 0.3225 -0.9217 -0.2155
vn 0.6561 -0.7041 -0.2718
vn 0.5172 -0.8286 -0.2142
vn 0.3584 -0.9217 -0.1484
vn 0.1857 -0.9796 -0.0769
vn 0.9228 -0.0489 -0.3822
vn 0.9063 -0.1939 -0.3754
vn 0.8544 -0.3805 -0.3539
vn 0.7699 -0.5528 -0.3189
vn 0.9796 -0.0489 -0.1949
vn 0.9622 -0.1939 -0.1914
vn 0.9070 -0.3805 -0.1804
vn 0.8173 -0.5528 -0.1626
vn 0.6965 -0.7041 -0.1385
vn 0.5490 -0.8286 -0.1092
vn 0.3804 -0.9217 -0.0757
vn 0.1971 -0.9796 -0.0392
vn 0.7101 -0.7041 -0.0000
vn 0.5598 -0.8286 -0.0000
vn 0.3879 -0.9217 -0.0000
vn 0.2010 -0.9796 -0.0000
vn 0.9988 -0.0489 -0.0000
vn 0.9810 -0.1939 -0.0000
vn 0.9248 -0.3805 -0.0000
vn 0.8333 -0.5528 -0.0000
vn 0.9622 -0.1939 0.1914
vn 0.9070 -0.3805 0.1804
vn 0.8173 -0.5528 0.1626
vn 0.6965 -0.7041 0.1385
vn 0.5490 -0.8286 0.1092
vn 0.3804 -0.9217 0.0757
vn 0.1971 -0.9796 0.0392
vn 0.9796 -0.0489 0.1949
vn 0.5172 -0.8286 0.2142
vn 0.3584 -0.9217 0.1484
vn 0.1857 -0.9796 0.0769
vn 0.9228 -0.0489 0.3822
vn 0.9063 -0.1939 0.3754
vn 0.8544 -0.3805 0.3539
vn 0.7699 -0.5528 0.3189
vn 0.6561 -0.7041 0.2718
vn 0.7689 -0.3805 0.5138
vn 0.6929 -0.5528 0.4630
vn 0.5905 -0.7041 0.3945
vn 0.4654 -0.8286 0.3110
vn 0.3225 -0.9217 0.2155
vn 0.1671 -0.9796 0.1117
vn 0.8305 -0.0489 0.5549
vn 0.8157 -0.1939 0.5450
vn 0.2743 -0.9217 0.2743
vn 0.1421 -0.9796 0.1421
vn 0.7063 -0.0489 0.7063
vn 0.6937 -0.1939 0.6937
vn 0.6539 -0.3805 0.6539
vn 0.5893 -0.5528 0.5893
vn 0.5021 -0.7041 0.5021
vn 0.3958 -0.8286 0.3958
vn 0.5138 -0.3805 0.7689
vn 0.4630 -0.5528 0.6929
vn 0.3945 -0.7041 0.5905
vn 0.3110 -0.8286 0.4654
vn 0.2155 -0.9217 0.3225
vn 0.1117 -0.9796 0.1671
vn 0.5549 -0.0489 0.8305
vn 0.5450 -0.1939 0.8157
vn 0.1484 -0.9217 0.3584
vn 0.0769 -0.9796 0.1857
vn 0.3822 -0.0489 0.9228
vn 0.3754 -0.1939 0.9063
vn 0.3539 -0.3805 0.8544
vn 0.3189 -0.5528 0.7699
vn 0.2718 -0.7041 0.6561
vn 0.2142 -0.8286 0.5172
vn 0.1626 -0.5528 0.8173
vn 0.1385 -0.7041 0.6965
vn 0.1092 -0.8286 0.5490
vn 0.0757 -0.9217 0.3804
vn 0.0392 -0.9796 0.1971
vn 0.1949 -0.0489 0.9796
vn 0.1914 -0.1939 0.9622
vn 0.1804 -0.3805 0.9070
vn -0.0000 -0.9796 0.2010
vn -0.0000 -0.0489 0.9988
vn -0.0000 -0.1939 0.9810
vn -0.0000 -0.3805 0.9248
vn -0.0000 -0.5528 0.8333
vn -0.0000 -0.7041 0.7101
vn -0.0000 -0.8286 0.5598
vn -0.0000 -0.9217 0.3879
vn -0.1626 -0.5528 0.8173
vn -0.1385 -0.7041 0.6965
vn -0.1092 -0.8286 0.5490
vn -0.0757 -0.9217 0.3804
vn -0.0392 -0.9796 0.1971
vn -0.1949 -0.0489 0.9796
vn -0.1914 -0.1939 0.9622
vn -0.1804 -0.3805 0.9070
vn -0.0769 -0.9796 0.1857
vn -0.3822 -0.0489 0.9228
vn -0.3754 -0.1939 0.9063
vn -0.3539 -0.3805 0.8544
vn -0.3189 -0.5528 0.7699
vn -0.2718 -0.7041 0.6561
vn -0.2142 -0.8286 0.5172
vn -0.1484 -0.9217 0.3584
vn -0.3945 -0.7041 0.5905
vn -0.3110 -0.8286 0.4654
vn -0.2155 -0.9217 0.3225
vn -0.1117 -0.9796 0.1671
vn -0.5549 -0.0489 0.8305
vn -0.5450 -0.1939 0.8157
vn -0.5138 -0.3805 0.7689
vn -0.4630 -0.5528 0.6929
vn -0.6937 -0.1939 0.6937
vn -0.6539 -0.3805 0.6539
vn -0.5893 -0.5528 0.5893
vn -0.5021 -0.7041 0.5021
vn -0.3958 -0.8286 0.3958
vn -0.2743 -0.9217 0.2743
vn -0.1421 -0.9796 0.1421
vn -0.7063 -0.0489 0.7063
vn -0.4654 -0.8286 0.3110
vn -0.3225 -0.9217 0.2155
vn -0.1671 -0.9796 0.1117
vn -0.8305 -0.0489 0.5549
vn -0.8157 -0.1939 0.5450
vn -0.7689 -0.3805 0.5138
vn -0.6929 -0.5528 0.4630
vn -0.5905 -0.7041 0.3945
vn -0.9063 -0.1939 0.3754
vn -0.8544 -0.3805 0.3539
vn -0.7699 -0.5528 0.3189
vn -0.6561 -0.7041 0.2718
vn -0.5172 -0.8286 0.2142
vn -0.3584 -0.9217 0.1484
vn -0.1857 -0.9796 0.0769
vn -0.9228 -0.0489 0.3822
vn -0.5490 -0.8286 0.1092
vn -0.3804 -0.9217 0.0757
vn -0.1971 -0.9796 0.0392
vn -0.9796 -0.0489 0.1949
vn -0.9622 -0.1939 0.1914
vn -0.9070 -0.3805 0.1804
vn -0.8173 -0.5528 0.1626
vn -0.6965 -0.7041 0.1385
vn -0.9248 -0.3805 -0.0000
vn -0.8333 -0.5528 -0.0000
vn -0.7101 -0.7041 -0.0000
vn -0.5598 -0.8286 -0.0000
vn -0.3879 -0.9217 -0.0000
vn -0.2010 -0.9796 -0.0000
vn -0.9988 -0.0489 -0.0000
vn -0.9810 -0.1939 -0.0000
vn -0.3804 -0.9217 -0.0757
vn -0.1971 -0.9796 -0.0392
vn -0.9796 -0.0489 -0.1949
vn -0.9622 -0.1939 -0.1914
vn -0.9070 -0.3805 -0.1804
vn -0.8173 -0.5528 -0.1626
vn -0.6965 -0.7041 -0.1385
vn -0.5490 -0.8286 -0.1092
vn -0.8544 -0.3805 -0.3539
vn -0.7699 -0.5528 -0.3189
vn -0.6561 -0.7041 -0.2718
vn -0.5172 -0.8286 -0.2142
vn -0.3584 -0.9217 -0.1484
vn -0.1857 -0.9796 -0.0769
vn -0.9228 -0.0489 -0.3822
vn -0.9063 -0.1939 -0.3754
vn -0.3225 -0.9217 -0.2155
vn -0.1671 -0.9796 -0.1117
vn -0.8305 -0.0489 -0.5549
vn -0.8157 -0.1939 -0.5450
vn -0.7689 -0.3805 -0.5138
vn -0.6929 -0.5528 -0.4630
vn -0.5905 -0.7041 -0.3945
vn -0.4654 -0.8286 -0.3110
vn -0.5893 -0.5528 -0.5893
vn -0.5021 -0.7041 -0.5021
vn -0.3958 -0.8286 -0.3958
vn -0.2743 -0.9217 -0.2743
vn -0.1421 -0.9796 -0.1421
vn -0.7063 -0.0489 -0.7063
vn -0.6937 -0.1939 -0.6937
vn -0.6539 -0.3805 -0.6539
vn 0.7071 -0.0000 0.7071
vn 0.8315 -0.0000 0.5556
vn 0.8305 0.0489 0.5549
vn 0.7063 0.0489 0.7063
vn -0.1117 -0.9796 -0.1671
vn -0.5549 -0.0489 -0.8305
vn -0.5450 -0.1939 -0.8157
vn -0.7071 -0.0000 -0.7071
vn -0.8315 -0.0000 -0.5556
vn -0.8305 0.0489 -0.5549
vn -0.7063 0.0489 -0.7063
vn -0.5138 -0.3805 -0.7689
vn 0.9808 -0.0000 -0.1951
vn 0.9239 -0.0000 -0.3827
vn 0.9228 0.0489 -0.3822
vn 0.9796 0.0489 -0.1949
vn -0.4630 -0.5528 -0.6929
vn 0.1951 -0.0000 0.9808
vn 0.3827 -0.0000 0.9239
vn 0.3822 0.0489 0.9228
vn 0.1949 0.0489 0.9796
vn -0.3945 -0.7041 -0.5905
vn -0.1951 -0.0000 -0.9808
vn -0.3827 -0.0000 -0.9239
vn -0.3822 0.0489 -0.9228
vn -0.1949 0.0489 -0.9796
vn -0.3110 -0.8286 -0.4654
vn -0.9808 -0.0000 0.1951
vn -0.9239 -0.0000 0.3827
vn -0.9228 0.0489 0.3822
vn -0.9796 0.0489 0.1949
vn -0.2155 -0.9217 -0.3225
vn -0.3827 -0.0000 0.9239
vn -0.1951 -0.0000 0.9808
vn -0.1949 0.0489 0.9796
vn -0.3822 0.0489 0.9228
vn -0.9239 -0.0000 -0.3827
vn -0.9808 -0.0000 -0.1951
vn -0.9796 0.0489 -0.1949
vn -0.9228 0.0489 -0.3822
vn 0.3827 -0.0000 -0.9239
vn 0.1951 -0.0000 -0.9808
vn 0.1949 0.0489 -0.9796
vn 0.3822 0.0489 -0.9228
vn -0.2718 -0.7041 -0.6561
vn -0.2142 -0.8286 -0.5172
vn 0.8315 -0.0000 -0.5556
vn 0.7071 -0.0000 -0.7071
vn 0.7063 0.0489 -0.7063
vn 0.8305 0.0489 -0.5549
vn -0.1484 -0.9217 -0.3584
vn 0.9239 -0.0000 0.3827
vn 0.9808 -0.0000 0.1951
vn 0.9796 0.0489 0.1949
vn 0.9228 0.0489 0.3822
vn -0.0769 -0.9796 -0.1857
vn -0.0000 -0.0000 -1.0000
vn -0.0000 0.0489 -0.9988
vn -0.5556 -0.0000 -0.8315
vn -0.5549 0.0489 -0.8305
vn -0.3822 -0.0489 -0.9228
vn -0.3754 -0.1939 -0.9063
vn 0.5556 -0.0000 0.8315
vn 0.5549 0.0489 0.8305
vn -0.3539 -0.3805 -0.8544
vn -0.8315 -0.0000 0.5556
vn -0.7071 -0.0000 0.7071
vn -0.7063 0.0489 0.7063
vn -0.8305 0.0489 0.5549
vn -0.3189 -0.5528 -0.7699
vn 1.0000 -0.0000 -0.0000
vn 0.9988 0.0489 -0.0000
vn -0.1949 -0.0489 -0.9796
vn -0.1914 -0.1939 -0.9622
vn -1.0000 -0.0000 -0.0000
vn -0.9988 0.0489 -0.0000
vn -0.1804 -0.3805 -0.9070
vn -0.1626 -0.5528 -0.8173
vn -0.5556 -0.0000 0.8315
vn -0.5549 0.0489 0.8305
vn -0.1385 -0.7041 -0.6965
vn -0.0000 -0.0000 1.0000
vn -0.0000 0.0489 0.9988
vn -0.1092 -0.8286 -0.5490
vn -0.0757 -0.9217 -0.3804
vn -0.0392 -0.9796 -0.1971
vn 0.5556 -0.0000 -0.8315
vn 0.5549 0.0489 -0.8305
vn -0.0000 0.5528 -0.8333
vn -0.0000 0.7041 -0.7101
vn 0.1385 0.7041 -0.6965
vn 0.1626 0.5528 -0.8173
vn -0.0000 0.3805 -0.9248
vn 0.1804 0.3805 -0.9070
vn -0.0000 0.1939 -0.9810
vn 0.1914 0.1939 -0.9622
vn -0.0000 0.9796 -0.2010
vn -0.0000 1.0000 -0.0000
vn 0.0392 0.9796 -0.1971
vn -0.0000 0.9217 -0.3879
vn 0.0757 0.9217 -0.3804
vn -0.0000 0.8286 -0.5598
vn 0.1092 0.8286 -0.5490
vn 0.2142 0.8286 -0.5172
vn 0.2718 0.7041 -0.6561
vn 0.3189 0.5528 -0.7699
vn 0.3539 0.3805 -0.8544
vn 0.3754 0.1939 -0.9063
vn 0.0769 0.9796 -0.1857
vn 0.1484 0.9217 -0.3584
vn 0.5450 0.1939 -0.8157
vn 0.1117 0.9796 -0.1671
vn 0.2155 0.9217 -0.3225
vn 0.3110 0.8286 -0.4654
vn 0.3945 0.7041 -0.5905
vn 0.4630 0.5528 -0.6929
vn 0.5138 0.3805 -0.7689
vn 0.5021 0.7041 -0.5021
vn 0.5893 0.5528 -0.5893
vn 0.6539 0.3805 -0.6539
vn 0.6937 0.1939 -0.6937
vn 0.1421 0.9796 -0.1421
vn 0.2743 0.9217 -0.2743
vn 0.3958 0.8286 -0.3958
vn 0.1671 0.9796 -0.1117
vn 0.3225 0.9217 -0.2155
vn 0.4654 0.8286 -0.3110
vn 0.5905 0.7041 -0.3945
vn 0.6929 0.5528 -0.4630
vn 0.7689 0.3805 -0.5138
vn 0.8157 0.1939 -0.5450
vn 0.6561 0.7041 -0.2718
vn 0.7699 0.5528 -0.3189
vn 0.8544 0.3805 -0.3539
vn 0.9063 0.1939 -0.3754
vn 0.1857 0.9796 -0.0769
vn 0.3584 0.9217 -0.1484
vn 0.5172 0.8286 -0.2142
vn 0.1971 0.9796 -0.0392
vn 0.3804 0.9217 -0.0757
vn 0.5490 0.8286 -0.1092
vn 0.6965 0.7041 -0.1385
vn 0.8173 0.5528 -0.1626
vn 0.9070 0.3805 -0.1804
vn 0.9622 0.1939 -0.1914
vn 0.8333 0.5528 -0.0000
vn 0.9248 0.3805 -0.0000
vn 0.9810 0.1939 -0.0000
vn 0.2010 0.9796 -0.0000
vn 0.3879 0.9217 -0.0000
vn 0.5598 0.8286 -0.0000
vn 0.7101 0.7041 -0.0000
vn 0.3804 0.9217 0.0757
vn 0.5490 0.8286 0.1092
vn 0.6965 0.7041 0.1385
vn 0.8173 0.5528 0.1626
vn 0.9070 0.3805 0.1804
vn 0.9622 0.1939 0.1914
vn 0.1971 0.9796 0.0392
vn 0.8544 0.3805 0.3539
vn 0.9063 0.1939 0.3754
vn 0.1857 0.9796 0.0769
vn 0.3584 0.9217 0.1484
vn 0.5172 0.8286 0.2142
vn 0.6561 0.7041 0.2718
vn 0.7699 0.5528 0.3189
vn 0.3225 0.9217 0.2155
vn 0.4654 0.8286 0.3110
vn 0.5905 0.7041 0.3945
vn 0.6929 0.5528 0.4630
vn 0.7689 0.3805 0.5138
vn 0.8157 0.1939 0.5450
vn 0.1671 0.9796 0.1117
vn 0.6539 0.3805 0.6539
vn 0.6937 0.1939 0.6937
vn 0.1421 0.9796 0.1421
vn 0.2743 0.9217 0.2743
vn 0.3958 0.8286 0.3958
vn 0.5021 0.7041 0.5021
vn 0.5893 0.5528 0.5893
vn 0.3110 0.8286 0.4654
vn 0.3945 0.7041 0.5905
vn 0.4630 0.5528 0.6929
vn 0.5138 0.3805 0.7689
vn 0.5450 0.1939 0.8157
vn 0.1117 0.9796 0.1671
vn 0.2155 0.9217 0.3225
vn 0.3754 0.1939 0.9063
vn 0.0769 0.9796 0.1857
vn 0.1484 0.9217 0.3584
vn 0.2142 0.8286 0.5172
vn 0.2718 0.7041 0.6561
vn 0.3189 0.5528 0.7699
vn 0.3539 0.3805 0.8544
vn 0.1092 0.8286 0.5490
vn 0.1385 0.7041 0.6965
vn 0.1626 0.5528 0.8173
vn 0.1804 0.3805 0.9070
vn 0.1914 0.1939 0.9622
vn 0.0392 0.9796 0.1971
vn 0.0757 0.9217 0.3804
vn -0.0000 0.1939 0.9810
vn -0.0000 0.9796 0.2010
vn -0.0000 0.9217 0.3879
vn -0.0000 0.8286 0.5598
vn -0.0000 0.7041 0.7101
vn -0.0000 0.5528 0.8333
vn -0.0000 0.3805 0.9248
vn -0.1385 0.7041 0.6965
vn -0.1626 0.5528 0.8173
vn -0.1804 0.3805 0.9070
vn -0.1914 0.1939 0.9622
vn -0.0392 0.9796 0.1971
vn -0.0757 0.9217 0.3804
vn -0.1092 0.8286 0.5490
vn -0.0769 0.9796 0.1857
vn -0.1484 0.9217 0.3584
vn -0.2142 0.8286 0.5172
vn -0.2718 0.7041 0.6561
vn -0.3189 0.5528 0.7699
vn -0.3539 0.3805 0.8544
vn -0.3754 0.1939 0.9063
vn -0.4630 0.5528 0.6929
vn -0.5138 0.3805 0.7689
vn -0.5450 0.1939 0.8157
vn -0.1117 0.9796 0.1671
vn -0.2155 0.9217 0.3225
vn -0.3110 0.8286 0.4654
vn -0.3945 0.7041 0.5905
vn -0.1421 0.9796 0.1421
vn -0.2743 0.9217 0.2743
vn -0.3958 0.8286 0.3958
vn -0.5021 0.7041 0.5021
vn -0.5893 0.5528 0.5893
vn -0.6539 0.3805 0.6539
vn -0.6937 0.1939 0.6937
vn -0.6929 0.5528 0.4630
vn -0.7689 0.3805 0.5138
vn -0.8157 0.1939 0.5450
vn -0.1671 0.9796 0.1117
vn -0.3225 0.9217 0.2155
vn -0.4654 0.8286 0.3110
vn -0.5905 0.7041 0.3945
vn -0.3584 0.9217 0.1484
vn -0.5172 0.8286 0.2142
vn -0.6561 0.7041 0.2718
vn -0.7699 0.5528 0.3189
vn -0.8544 0.3805 0.3539
vn -0.9063 0.1939 0.3754
vn -0.1857 0.9796 0.0769
vn -0.9070 0.3805 0.1804
vn -0.9622 0.1939 0.1914
vn -0.1971 0.9796 0.0392
vn -0.3804 0.9217 0.0757
vn -0.5490 0.8286 0.1092
vn -0.6965 0.7041 0.1385
vn -0.8173 0.5528 0.1626
vn -0.3879 0.9217 -0.0000
vn -0.5598 0.8286 -0.0000
vn -0.7101 0.7041 -0.0000
vn -0.8333 0.5528 -0.0000
vn -0.9248 0.3805 -0.0000
vn -0.9810 0.1939 -0.0000
vn -0.2010 0.9796 -0.0000
vn -0.9070 0.3805 -0.1804
vn -0.9622 0.1939 -0.1914
vn -0.1971 0.9796 -0.0392
vn -0.3804 0.9217 -0.0757
vn -0.5490 0.8286 -0.1092
vn -0.6965 0.7041 -0.1385
vn -0.8173 0.5528 -0.1626
vn -0.5172 0.8286 -0.2142
vn -0.6561 0.7041 -0.2718
vn -0.7699 0.5528 -0.3189
vn -0.8544 0.3805 -0.3539
vn -0.9063 0.1939 -0.3754
vn -0.1857 0.9796 -0.0769
vn -0.3584 0.9217 -0.1484
vn -0.8157 0.1939 -0.5450
vn -0.1671 0.9796 -0.1117
vn -0.3225 0.9217 -0.2155
vn -0.4654 0.8286 -0.3110
vn -0.5905 0.7041 -0.3945
vn -0.6929 0.5528 -0.4630
vn -0.7689 0.3805 -0.5138
vn -0.5021 0.7041 -0.5021
vn -0.5893 0.5528 -0.5893
vn -0.6539 0.3805 -0.6539
vn -0.6937 0.1939 -0.6937
vn -0.1421 0.9796 -0.1421
vn -0.2743 0.9217 -0.2743
vn -0.3958 0.8286 -0.3958
vn -0.1117 0.9796 -0.1671
vn -0.2155 0.9217 -0.3225
vn -0.3110 0.8286 -0.4654
vn -0.3945 0.7041 -0.5905
vn -0.4630 0.5528 -0.6929
vn -0.5138 0.3805 -0.7689
vn -0.5450 0.1939 -0.8157
vn -0.2718 0.7041 -0.6561
vn -0.3189 0.5528 -0.7699
vn -0.3539 0.3805 -0.8544
vn -0.3754 0.1939 -0.9063
vn -0.0769 0.9796 -0.1857
vn -0.1484 0.9217 -0.3584
vn -0.2142 0.8286 -0.5172
vn -0.0392 0.9796 -0.1971
vn -0.0757 0.9217 -0.3804
vn -0.1092 0.8286 -0.5490
vn -0.1385 0.7041 -0.6965
vn -0.1626 0.5528 -0.8173
vn -0.1804 0.3805 -0.9070
vn -0.1914 0.1939 -0.9622
vn 0.0044 -1.0000 0.0044
vn 0.0052 -1.0000 0.0035
vn -0.0048 -1.0000 -0.0049
vn -0.0056 -1.0000 -0.0038
vn -0.0056 -1.0000 -0.0037
vn -0.0049 -1.0000 -0.0048
vn 0.0065 -1.0000 -0.0013
vn 0.0062 -1.0000 -0.0026
vn 0.0062 -1.0000 -0.0025
vn 0.0012 -1.0000 0.0060
vn 0.0024 -1.0000 0.0056
vn 0.0023 -1.0000 0.0057
vn -0.0014 -1.0000 -0.0069
vn -0.0027 -1.0000 -0.0064
vn -0.0063 -1.0000 0.0012
vn -0.0059 -1.0000 0.0024
vn -0.0058 -1.0000 0.0024
vn -0.0063 -1.0000 0.0013
vn -0.0024 -1.0000 0.0056
vn -0.0012 -1.0000 0.0060
vn -0.0023 -1.0000 0.0057
vn -0.0062 -1.0000 -0.0026
vn -0.0065 -1.0000 -0.0013
vn -0.0062 -1.0000 -0.0025
vn 0.0027 -1.0000 -0.0064
vn 0.0014 -1.0000 -0.0069
vn 0.0056 -1.0000 -0.0038
vn 0.0048 -1.0000 -0.0049
vn 0.0049 -1.0000 -0.0048
vn 0.0056 -1.0000 -0.0037
vn 0.0059 -1.0000 0.0024
vn 0.0063 -1.0000 0.0012
vn 0.0063 -1.0000 0.0013
vn 0.0058 -1.0000 0.0024
vn -0.0000 -1.0000 -0.0070
vn -0.0038 -1.0000 -0.0058
vn -0.0039 -1.0000 -0.0057
vn 0.0034 -1.0000 0.0051
vn -0.0052 -1.0000 0.0035
vn -0.0044 -1.0000 0.0044
vn 0.0065 -1.0000 -0.0000
vn -0.0065 -1.0000 -0.0000
vn -0.0034 -1.0000 0.0051
vn -0.0000 -1.0000 0.0061
vn 0.0038 -1.0000 -0.0058
vn 0.0039 -1.0000 -0.0057
vt 0.750000 0.187500
vt 0.750000 0.250000
vt 0.718750 0.250000
vt 0.718750 0.187500
vt 0.750000 0.125000
vt 0.718750 0.125000
vt 0.750000 0.062500
vt 0.718750 0.062500
vt 0.734375 0.000000
vt 0.750000 0.437500
vt 0.750000 0.500000
vt 0.718750 0.500000
vt 0.718750 0.437500
vt 0.750000 0.375000
vt 0.718750 0.375000
vt 0.750000 0.312500
vt 0.718750 0.312500
vt 0.687500 0.312500
vt 0.687500 0.250000
vt 0.687500 0.187500
vt 0.687500 0.125000
vt 0.687500 0.062500
vt 0.703125 0.000000
vt 0.687500 0.500000
vt 0.687500 0.437500
vt 0.687500 0.375000
vt 0.671875 0.000000
vt 0.656250 0.062500
vt 0.656250 0.500000
vt 0.656250 0.437500
vt 0.656250 0.375000
vt 0.656250 0.312500
vt 0.656250 0.250000
vt 0.656250 0.187500
vt 0.656250 0.125000
vt 0.625000 0.312500
vt 0.625000 0.250000
vt 0.625000 0.187500
vt 0.625000 0.125000
vt 0.625000 0.062500
vt 0.640625 0.000000
vt 0.625000 0.500000
vt 0.625000 0.437500
vt 0.625000 0.375000
vt 0.609375 0.000000
vt 0.593750 0.062500
vt 0.593750 0.500000
vt 0.593750 0.437500
vt 0.593750 0.375000
vt 0.593750 0.312500
vt 0.593750 0.250000
vt 0.593750 0.187500
vt 0.593750 0.125000
vt 0.562500 0.250000
vt 0.562500 0.187500
vt 0.562500 0.125000
vt 0.562500 0.062500
vt 0.578125 0.000000
vt 0.562500 0.500000
vt 0.562500 0.437500
vt 0.562500 0.375000
vt 0.562500 0.312500
vt 0.531250 0.500000
vt 0.531250 0.437500
vt 0.531250 0.375000
vt 0.531250 0.312500
vt 0.531250 0.250000
vt 0.531250 0.187500
vt 0.531250 0.125000
vt 0.531250 0.062500
vt 0.546875 0.000000
vt 0.500000 0.250000
vt 0.500000 0.187500
vt 0.500000 0.125000
vt 0.500000 0.062500
vt 0.515625 0.000000
vt 0.500000 0.500000
vt 0.500000 0.437500
vt 0.500000 0.375000
vt 0.500000 0.312500
vt 0.468750 0.437500
vt 0.468750 0.375000
vt 0.468750 0.312500
vt 0.468750 0.250000
vt 0.468750 0.187500
vt 0.468750 0.125000
vt 0.468750 0.062500
vt 0.484375 0.000000
vt 0.468750 0.500000
vt 0.437500 0.187500
vt 0.437500 0.125000
vt 0.437500 0.062500
vt 0.453125 0.000000
vt 0.437500 0.500000
vt 0.437500 0.437500
vt 0.437500 0.375000
vt 0.437500 0.312500
vt 0.437500 0.250000
vt 0.406250 0.375000
vt 0.406250 0.312500
vt 0.406250 0.250000
vt 0.406250 0.187500
vt 0.406250 0.125000
vt 0.406250 0.062500
vt 0.421875 0.000000
vt 0.406250 0.500000
vt 0.406250 0.437500
vt 0.375000 0.125000
vt 0.375000 0.062500
vt 0.390625 0.000000
vt 0.375000 0.500000
vt 0.375000 0.437500
vt 0.375000 0.375000
vt 0.375000 0.312500
vt 0.375000 0.250000
vt 0.375000 0.187500
vt 0.343750 0.375000
vt 0.343750 0.312500
vt 0.343750 0.250000
vt 0.343750 0.187500
vt 0.343750 0.125000
vt 0.343750 0.062500
vt 0.359375 0.000000
vt 0.343750 0.500000
vt 0.343750 0.437500
vt 0.312500 0.125000
vt 0.312500 0.062500
vt 0.328125 0.000000
vt 0.312500 0.500000
vt 0.312500 0.437500
vt 0.312500 0.375000
vt 0.312500 0.312500
vt 0.312500 0.250000
vt 0.312500 0.187500
vt 0.281250 0.312500
vt 0.281250 0.250000
vt 0.281250 0.187500
vt 0.281250 0.125000
vt 0.281250 0.062500
vt 0.296875 0.000000
vt 0.281250 0.500000
vt 0.281250 0.437500
vt 0.281250 0.375000
vt 0.265625 0.000000
vt 0.250000 0.062500
vt 0.250000 0.500000
vt 0.250000 0.437500
vt 0.250000 0.375000
vt 0.250000 0.312500
vt 0.250000 0.250000
vt 0.250000 0.187500
vt 0.250000 0.125000
vt 0.218750 0.312500
vt 0.218750 0.250000
vt 0.218750 0.187500
vt 0.218750 0.125000
vt 0.218750 0.062500
vt 0.234375 0.000000
vt 0.218750 0.500000
vt 0.218750 0.437500
vt 0.218750 0.375000
vt 0.203125 0.000000
vt 0.187500 0.062500
vt 0.187500 0.500000
vt 0.187500 0.437500
vt 0.187500 0.375000
vt 0.187500 0.312500
vt 0.187500 0.250000
vt 0.187500 0.187500
vt 0.187500 0.125000
vt 0.156250 0.250000
vt 0.156250 0.187500
vt 0.156250 0.125000
vt 0.156250 0.062500
vt 0.171875 0.000000
vt 0.156250 0.500000
vt 0.156250 0.437500
vt 0.156250 0.375000
vt 0.156250 0.312500
vt 0.125000 0.437500
vt 0.125000 0.375000
vt 0.125000 0.312500
vt 0.125000 0.250000
vt 0.125000 0.187500
vt 0.125000 0.125000
vt 0.125000 0.062500
vt 0.140625 0.000000
vt 0.125000 0.500000
vt 0.093750 0.187500
vt 0.093750 0.125000
vt 0.093750 0.062500
vt 0.109375 0.000000
vt 0.093750 0.500000
vt 0.093750 0.437500
vt 0.093750 0.375000
vt 0.093750 0.312500
vt 0.093750 0.250000
vt 0.062500 0.437500
vt 0.062500 0.375000
vt 0.062500 0.312500
vt 0.062500 0.250000
vt 0.062500 0.187500
vt 0.062500 0.125000
vt 0.062500 0.062500
vt 0.078125 0.000000
vt 0.062500 0.500000
vt 0.031250 0.187500
vt 0.031250 0.125000
vt 0.031250 0.062500
vt 0.046875 0.000000
vt 0.031250 0.500000
vt 0.031250 0.437500
vt 0.031250 0.375000
vt 0.031250 0.312500
vt 0.031250 0.250000
vt 0.000000 0.375000
vt 0.000000 0.312500
vt 0.000000 0.250000
vt 0.000000 0.187500
vt 0.000000 0.125000
vt 0.000000 0.062500
vt 0.015625 0.000000
vt 0.000000 0.500000
vt 0.000000 0.437500
vt 1.000000 0.062500
vt 1.000000 0.125000
vt 0.968750 0.125000
vt 0.968750 0.062500
vt 0.984375 0.000000
vt 1.000000 0.437500
vt 1.000000 0.500000
vt 0.968750 0.500000
vt 0.968750 0.437500
vt 1.000000 0.375000
vt 0.968750 0.375000
vt 1.000000 0.312500
vt 0.968750 0.312500
vt 1.000000 0.250000
vt 0.968750 0.250000
vt 1.000000 0.187500
vt 0.968750 0.187500
vt 0.937500 0.375000
vt 0.937500 0.312500
vt 0.937500 0.250000
vt 0.937500 0.187500
vt 0.937500 0.125000
vt 0.937500 0.062500
vt 0.953125 0.000000
vt 0.937500 0.500000
vt 0.937500 0.437500
vt 0.906250 0.125000
vt 0.906250 0.062500
vt 0.921875 0.000000
vt 0.906250 0.500000
vt 0.906250 0.437500
vt 0.906250 0.375000
vt 0.906250 0.312500
vt 0.906250 0.250000
vt 0.906250 0.187500
vt 0.875000 0.312500
vt 0.875000 0.250000
vt 0.875000 0.187500
vt 0.875000 0.125000
vt 0.875000 0.062500
vt 0.890625 0.000000
vt 0.875000 0.500000
vt 0.875000 0.437500
vt 0.875000 0.375000
vt 0.406250 0.500000
vt 0.859375 0.000000
vt 0.843750 0.062500
vt 0.843750 0.500000
vt 0.843750 0.437500
vt 0.875000 0.500000
vt 0.906250 0.500000
vt 0.843750 0.375000
vt 0.531250 0.500000
vt 0.562500 0.500000
vt 0.843750 0.312500
vt 0.843750 0.250000
vt 0.781250 0.500000
vt 0.812500 0.500000
vt 0.812500 0.500000
vt 0.781250 0.500000
vt 0.843750 0.187500
vt 0.062500 0.500000
vt 0.843750 0.125000
vt 0.937500 0.500000
vt 0.968750 0.500000
vt 0.687500 0.500000
vt 0.718750 0.500000
vt 0.812500 0.250000
vt 0.812500 0.187500
vt 0.593750 0.500000
vt 0.625000 0.500000
vt 0.812500 0.125000
vt 0.437500 0.500000
vt 0.468750 0.500000
vt 0.812500 0.062500
vt 0.750000 0.500000
vt 0.843750 0.500000
vt 0.828125 0.000000
vt 0.812500 0.437500
vt 0.812500 0.375000
vt 0.093750 0.500000
vt 0.812500 0.312500
vt 0.500000 0.500000
vt 0.781250 0.437500
vt 0.000000 0.500000
vt 0.781250 0.375000
vt 0.781250 0.312500
vt 0.781250 0.250000
vt 0.781250 0.187500
vt 0.781250 0.125000
vt 0.781250 0.062500
vt 0.796875 0.000000
vt 0.656250 0.500000
vt 0.765625 0.000000
vt 0.750000 0.687500
vt 0.750000 0.750000
vt 0.718750 0.750000
vt 0.718750 0.687500
vt 0.750000 0.625000
vt 0.718750 0.625000
vt 0.750000 0.562500
vt 0.718750 0.562500
vt 0.750000 0.937500
vt 0.734375 1.000000
vt 0.718750 0.937500
vt 0.750000 0.875000
vt 0.718750 0.875000
vt 0.750000 0.812500
vt 0.718750 0.812500
vt 0.687500 0.812500
vt 0.687500 0.750000
vt 0.687500 0.687500
vt 0.687500 0.625000
vt 0.687500 0.562500
vt 0.703125 1.000000
vt 0.687500 0.937500
vt 0.687500 0.875000
vt 0.656250 0.562500
vt 0.671875 1.000000
vt 0.656250 0.937500
vt 0.656250 0.875000
vt 0.656250 0.812500
vt 0.656250 0.750000
vt 0.656250 0.687500
vt 0.656250 0.625000
vt 0.625000 0.750000
vt 0.625000 0.687500
vt 0.625000 0.625000
vt 0.625000 0.562500
vt 0.640625 1.000000
vt 0.625000 0.937500
vt 0.625000 0.875000
vt 0.625000 0.812500
vt 0.609375 1.000000
vt 0.593750 0.937500
vt 0.593750 0.875000
vt 0.593750 0.812500
vt 0.593750 0.750000
vt 0.593750 0.687500
vt 0.593750 0.625000
vt 0.593750 0.562500
vt 0.562500 0.750000
vt 0.562500 0.687500
vt 0.562500 0.625000
vt 0.562500 0.562500
vt 0.578125 1.000000
vt 0.562500 0.937500
vt 0.562500 0.875000
vt 0.562500 0.812500
vt 0.531250 0.937500
vt 0.531250 0.875000
vt 0.531250 0.812500
vt 0.531250 0.750000
vt 0.531250 0.687500
vt 0.531250 0.625000
vt 0.531250 0.562500
vt 0.546875 1.000000
vt 0.500000 0.687500
vt 0.500000 0.625000
vt 0.500000 0.562500
vt 0.515625 1.000000
vt 0.500000 0.937500
vt 0.500000 0.875000
vt 0.500000 0.812500
vt 0.500000 0.750000
vt 0.468750 0.875000
vt 0.468750 0.812500
vt 0.468750 0.750000
vt 0.468750 0.687500
vt 0.468750 0.625000
vt 0.468750 0.562500
vt 0.484375 1.000000
vt 0.468750 0.937500
vt 0.437500 0.625000
vt 0.437500 0.562500
vt 0.453125 1.000000
vt 0.437500 0.937500
vt 0.437500 0.875000
vt 0.437500 0.812500
vt 0.437500 0.750000
vt 0.437500 0.687500
vt 0.406250 0.875000
vt 0.406250 0.812500
vt 0.406250 0.750000
vt 0.406250 0.687500
vt 0.406250 0.625000
vt 0.406250 0.562500
vt 0.421875 1.000000
vt 0.406250 0.937500
vt 0.375000 0.625000
vt 0.375000 0.562500
vt 0.390625 1.000000
vt 0.375000 0.937500
vt 0.375000 0.875000
vt 0.375000 0.812500
vt 0.375000 0.750000
vt 0.375000 0.687500
vt 0.343750 0.812500
vt 0.343750 0.750000
vt 0.343750 0.687500
vt 0.343750 0.625000
vt 0.343750 0.562500
vt 0.359375 1.000000
vt 0.343750 0.937500
vt 0.343750 0.875000
vt 0.312500 0.562500
vt 0.328125 1.000000
vt 0.312500 0.937500
vt 0.312500 0.875000
vt 0.312500 0.812500
vt 0.312500 0.750000
vt 0.312500 0.687500
vt 0.312500 0.625000
vt 0.281250 0.812500
vt 0.281250 0.750000
vt 0.281250 0.687500
vt 0.281250 0.625000
vt 0.281250 0.562500
vt 0.296875 1.000000
vt 0.281250 0.937500
vt 0.281250 0.875000
vt 0.250000 0.562500
vt 0.265625 1.000000
vt 0.250000 0.937500
vt 0.250000 0.875000
vt 0.250000 0.812500
vt 0.250000 0.750000
vt 0.250000 0.687500
vt 0.250000 0.625000
vt 0.218750 0.750000
vt 0.218750 0.687500
vt 0.218750 0.625000
vt 0.218750 0.562500
vt 0.234375 1.000000
vt 0.218750 0.937500
vt 0.218750 0.875000
vt 0.218750 0.812500
vt 0.187500 0.937500
vt 0.187500 0.875000
vt 0.187500 0.812500
vt 0.187500 0.750000
vt 0.187500 0.687500
vt 0.187500 0.625000
vt 0.187500 0.562500
vt 0.203125 1.000000
vt 0.156250 0.687500
vt 0.156250 0.625000
vt 0.156250 0.562500
vt 0.171875 1.000000
vt 0.156250 0.937500
vt 0.156250 0.875000
vt 0.156250 0.812500
vt 0.156250 0.750000
vt 0.125000 0.937500
vt 0.125000 0.875000
vt 0.125000 0.812500
vt 0.125000 0.750000
vt 0.125000 0.687500
vt 0.125000 0.625000
vt 0.125000 0.562500
vt 0.140625 1.000000
vt 0.093750 0.687500
vt 0.093750 0.625000
vt 0.093750 0.562500
vt 0.109375 1.000000
vt 0.093750 0.937500
vt 0.093750 0.875000
vt 0.093750 0.812500
vt 0.093750 0.750000
vt 0.062500 0.875000
vt 0.062500 0.812500
vt 0.062500 0.750000
vt 0.062500 0.687500
vt 0.062500 0.625000
vt 0.062500 0.562500
vt 0.078125 1.000000
vt 0.062500 0.937500
vt 0.031250 0.625000
vt 0.031250 0.562500
vt 0.046875 1.000000
vt 0.031250 0.937500
vt 0.031250 0.875000
vt 0.031250 0.812500
vt 0.031250 0.750000
vt 0.031250 0.687500
vt 0.000000 0.875000
vt 0.000000 0.812500
vt 0.000000 0.750000
vt 0.000000 0.687500
vt 0.000000 0.625000
vt 0.000000 0.562500
vt 0.015625 1.000000
vt 0.000000 0.937500
vt 1.000000 0.562500
vt 1.000000 0.625000
vt 0.968750 0.625000
vt 0.968750 0.562500
vt 1.000000 0.937500
vt 0.984375 1.000000
vt 0.968750 0.937500
vt 1.000000 0.875000
vt 0.968750 0.875000
vt 1.000000 0.812500
vt 0.968750 0.812500
vt 1.000000 0.750000
vt 0.968750 0.750000
vt 1.000000 0.687500
vt 0.968750 0.687500
vt 0.937500 0.812500
vt 0.937500 0.750000
vt 0.937500 0.687500
vt 0.937500 0.625000
vt 0.937500 0.562500
vt 0.953125 1.000000
vt 0.937500 0.937500
vt 0.937500 0.875000
vt 0.906250 0.562500
vt 0.921875 1.000000
vt 0.906250 0.937500
vt 0.906250 0.875000
vt 0.906250 0.812500
vt 0.906250 0.750000
vt 0.906250 0.687500
vt 0.906250 0.625000
vt 0.875000 0.750000
vt 0.875000 0.687500
vt 0.875000 0.625000
vt 0.875000 0.562500
vt 0.890625 1.000000
vt 0.875000 0.937500
vt 0.875000 0.875000
vt 0.875000 0.812500
vt 0.859375 1.000000
vt 0.843750 0.937500
vt 0.843750 0.875000
vt 0.843750 0.812500
vt 0.843750 0.750000
vt 0.843750 0.687500
vt 0.843750 0.625000
vt 0.843750 0.562500
vt 0.812500 0.750000
vt 0.812500 0.687500
vt 0.812500 0.625000
vt 0.812500 0.562500
vt 0.828125 1.000000
vt 0.812500 0.937500
vt 0.812500 0.875000
vt 0.812500 0.812500
vt 0.781250 0.937500
vt 0.781250 0.875000
vt 0.781250 0.812500
vt 0.781250 0.750000
vt 0.781250 0.687500
vt 0.781250 0.625000
vt 0.781250 0.562500
vt 0.796875 1.000000
vt 0.765625 1.000000
vt 0.156250 0.500000
vt 0.125000 0.500000
vt 0.500000 0.500000
vt 0.468750 0.500000
vt 0.343750 0.500000
vt 0.312500 0.500000
vt 0.250000 0.500000
vt 0.218750 0.500000
vt 0.093750 0.500000
vt 0.062500 0.500000
vt 0.906250 0.500000
vt 0.187500 0.500000
vt 0.031250 0.500000
vt 0.750000 0.500000
vt 0.968750 0.500000
vt 1.000000 0.500000
vt 0.468750 0.500000
vt 0.250000 0.500000
vt 0.937500 0.500000
vt 0.406250 0.500000
vt 0.437500 0.500000
vt 0.000000 0.500000
vt 0.531250 0.500000
s 1
f 255/1/1 254/2/2 9/3/3 10/4/4
f 256/5/5 255/1/1 10/4/4 11/6/6
f 257/7/7 256/5/5 11/6/6 12/8/8
f 4/9/9 257/7/7 12/8/8
f 2/10/10 1/11/11 5/12/12 6/13/13
f 253/14/14 2/10/10 6/13/13 7/15/15
f 3/16/16 253/14/14 7/15/15 8/17/17
f 254/2/2 3/16/16 8/17/17 9/3/3
f 9/3/3 8/17/17 16/18/18 17/19/19
f 10/4/4 9/3/3 17/19/19 18/20/20
f 11/6/6 10/4/4 18/20/20 19/21/21
f 12/8/8 11/6/6 19/21/21 20/22/22
f 4/23/9 12/8/8 20/22/22
f 6/13/13 5/12/12 13/24/23 14/25/24
f 7/15/15 6/13/13 14/25/24 15/26/25
f 8/17/17 7/15/15 15/26/25 16/18/18
f 4/27/9 20/22/22 28/28/26
f 14/25/24 13/24/23 21/29/27 22/30/28
f 15/26/25 14/25/24 22/30/28 23/31/29
f 16/18/18 15/26/25 23/31/29 24/32/30
f 17/19/19 16/18/18 24/32/30 25/33/31
f 18/20/20 17/19/19 25/33/31 26/34/32
f 19/21/21 18/20/20 26/34/32 27/35/33
f 20/22/22 19/21/21 27/35/33 28/28/26
f 25/33/31 24/32/30 32/36/34 33/37/35
f 26/34/32 25/33/31 33/37/35 34/38/36
f 27/35/33 26/34/32 34/38/36 35/39/37
f 28/28/26 27/35/33 35/39/37 36/40/38
f 4/41/9 28/28/26 36/40/38
f 22/30/28 21/29/27 29/42/39 30/43/40
f 23/31/29 22/30/28 30/43/40 31/44/41
f 24/32/30 23/31/29 31/44/41 32/36/34
f 4/45/9 36/40/38 44/46/42
f 30/43/40 29/42/39 37/47/43 38/48/44
f 31/44/41 30/43/40 38/48/44 39/49/45
f 32/36/34 31/44/41 39/49/45 40/50/46
f 33/37/35 32/36/34 40/50/46 41/51/47
f 34/38/36 33/37/35 41/51/47 42/52/48
f 35/39/37 34/38/36 42/52/48 43/53/49
f 36/40/38 35/39/37 43/53/49 44/46/42
f 42/52/48 41/51/47 49/54/50 50/55/51
f 43/53/49 42/52/48 50/55/51 51/56/52
f 44/46/42 43/53/49 51/56/52 52/57/53
f 4/58/9 44/46/42 52/57/53
f 38/48/44 37/47/43 45/59/54 46/60/55
f 39/49/45 38/48/44 46/60/55 47/61/56
f 40/50/46 39/49/45 47/61/56 48/62/57
f 41/51/47 40/50/46 48/62/57 49/54/50
f 46/60/55 45/59/54 53/63/58 54/64/59
f 47/61/56 46/60/55 54/64/59 55/65/60
f 48/62/57 47/61/56 55/65/60 56/66/61
f 49/54/50 48/62/57 56/66/61 57/67/62
f 50/55/51 49/54/50 57/67/62 58/68/63
f 51/56/52 50/55/51 58/68/63 59/69/64
f 52/57/53 51/56/52 59/69/64 60/70/65
f 4/71/9 52/57/53 60/70/65
f 58/68/63 57/67/62 65/72/66 66/73/67
f 59/69/64 58/68/63 66/73/67 67/74/68
f 60/70/65 59/69/64 67/74/68 68/75/69
f 4/76/9 60/70/65 68/75/69
f 54/64/59 53/63/58 61/77/70 62/78/71
f 55/65/60 54/64/59 62/78/71 63/79/72
f 56/66/61 55/65/60 63/79/72 64/80/73
f 57/67/62 56/66/61 64/80/73 65/72/66
f 63/79/72 62/78/71 70/81/74 71/82/75
f 64/80/73 63/79/72 71/82/75 72/83/76
f 65/72/66 64/80/73 72/83/76 73/84/77
f 66/73/67 65/72/66 73/84/77 74/85/78
f 67/74/68 66/73/67 74/85/78 75/86/79
f 68/75/69 67/74/68 75/86/79 76/87/80
f 4/88/9 68/75/69 76/87/80
f 62/78/71 61/77/70 69/89/81 70/81/74
f 75/86/79 74/85/78 82/90/82 83/91/83
f 76/87/80 75/86/79 83/91/83 84/92/84
f 4/93/9 76/87/80 84/92/84
f 70/81/74 69/89/81 77/94/85 78/95/86
f 71/82/75 70/81/74 78/95/86 79/96/87
f 72/83/76 71/82/75 79/96/87 80/97/88
f 73/84/77 72/83/76 80/97/88 81/98/89
f 74/85/78 73/84/77 81/98/89 82/90/82
f 80/97/88 79/96/87 87/99/90 88/100/91
f 81/98/89 80/97/88 88/100/91 89/101/92
f 82/90/82 81/98/89 89/101/92 90/102/93
f 83/91/83 82/90/82 90/102/93 91/103/94
f 84/92/84 83/91/83 91/103/94 92/104/95
f 4/105/9 84/92/84 92/104/95
f 78/95/86 77/94/85 85/106/96 86/107/97
f 79/96/87 78/95/86 86/107/97 87/99/90
f 92/104/95 91/103/94 99/108/98 100/109/99
f 4/110/9 92/104/95 100/109/99
f 86/107/97 85/106/96 93/111/100 94/112/101
f 87/99/90 86/107/97 94/112/101 95/113/102
f 88/100/91 87/99/90 95/113/102 96/114/103
f 89/101/92 88/100/91 96/114/103 97/115/104
f 90/102/93 89/101/92 97/115/104 98/116/105
f 91/103/94 90/102/93 98/116/105 99/108/98
f 96/114/103 95/113/102 103/117/106 104/118/107
f 97/115/104 96/114/103 104/118/107 105/119/108
f 98/116/105 97/115/104 105/119/108 106/120/109
f 99/108/98 98/116/105 106/120/109 107/121/110
f 100/109/99 99/108/98 107/121/110 108/122/111
f 4/123/9 100/109/99 108/122/111
f 94/112/101 93/111/100 101/124/112 102/125/113
f 95/113/102 94/112/101 102/125/113 103/117/106
f 108/122/111 107/121/110 115/126/114 116/127/115
f 4/128/9 108/122/111 116/127/115
f 102/125/113 101/124/112 109/129/116 110/130/117
f 103/117/106 102/125/113 110/130/117 111/131/118
f 104/118/107 103/117/106 111/131/118 112/132/119
f 105/119/108 104/118/107 112/132/119 113/133/120
f 106/120/109 105/119/108 113/133/120 114/134/121
f 107/121/110 106/120/109 114/134/121 115/126/114
f 113/133/120 112/132/119 120/135/122 121/136/123
f 114/134/121 113/133/120 121/136/123 122/137/124
f 115/126/114 114/134/121 122/137/124 123/138/125
f 116/127/115 115/126/114 123/138/125 124/139/126
f 4/140/9 116/127/115 124/139/126
f 110/130/117 109/129/116 117/141/127 118/142/128
f 111/131/118 110/130/117 118/142/128 119/143/129
f 112/132/119 111/131/118 119/143/129 120/135/122
f 4/144/9 124/139/126 132/145/130
f 118/142/128 117/141/127 125/146/131 126/147/132
f 119/143/129 118/142/128 126/147/132 127/148/133
f 120/135/122 119/143/129 127/148/133 128/149/134
f 121/136/123 120/135/122 128/149/134 129/150/135
f 122/137/124 121/136/123 129/150/135 130/151/136
f 123/138/125 122/137/124 130/151/136 131/152/137
f 124/139/126 123/138/125 131/152/137 132/145/130
f 129/150/135 128/149/134 136/153/138 137/154/139
f 130/151/136 129/150/135 137/154/139 138/155/140
f 131/152/137 130/151/136 138/155/140 139/156/141
f 132/145/130 131/152/137 139/156/141 140/157/142
f 4/158/9 132/145/130 140/157/142
f 126/147/132 125/146/131 133/159/143 134/160/144
f 127/148/133 126/147/132 134/160/144 135/161/145
f 128/149/134 127/148/133 135/161/145 136/153/138
f 4/162/9 140/157/142 148/163/146
f 134/160/144 133/159/143 141/164/147 142/165/148
f 135/161/145 134/160/144 142/165/148 143/166/149
f 136/153/138 135/161/145 143/166/149 144/167/150
f 137/154/139 136/153/138 144/167/150 145/168/151
f 138/155/140 137/154/139 145/168/151 146/169/152
f 139/156/141 138/155/140 146/169/152 147/170/153
f 140/157/142 139/156/141 147/170/153 148/163/146
f 146/169/152 145/168/151 153/171/154 154/172/155
f 147/170/153 146/169/152 154/172/155 155/173/156
f 148/163/146 147/170/153 155/173/156 156/174/157
f 4/175/9 148/163/146 156/174/157
f 142/165/148 141/164/147 149/176/158 150/177/159
f 143/166/149 142/165/148 150/177/159 151/178/160
f 144/167/150 143/166/149 151/178/160 152/179/161
f 145/168/151 144/167/150 152/179/161 153/171/154
f 151/178/160 150/177/159 158/180/162 159/181/163
f 152/179/161 151/178/160 159/181/163 160/182/164
f 153/171/154 152/179/161 160/182/164 161/183/165
f 154/172/155 153/171/154 161/183/165 162/184/166
f 155/173/156 154/172/155 162/184/166 163/185/167
f 156/174/157 155/173/156 163/185/167 164/186/168
f 4/187/9 156/174/157 164/186/168
f 150/177/159 149/176/158 157/188/169 158/180/162
f 163/185/167 162/184/166 170/189/170 171/190/171
f 164/186/168 163/185/167 171/190/171 172/191/172
f 4/192/9 164/186/168 172/191/172
f 158/180/162 157/188/169 165/193/173 166/194/174
f 159/181/163 158/180/162 166/194/174 167/195/175
f 160/182/164 159/181/163 167/195/175 168/196/176
f 161/183/165 160/182/164 168/196/176 169/197/177
f 162/184/166 161/183/165 169/197/177 170/189/170
f 167/195/175 166/194/174 174/198/178 175/199/179
f 168/196/176 167/195/175 175/199/179 176/200/180
f 169/197/177 168/196/176 176/200/180 177/201/181
f 170/189/170 169/197/177 177/201/181 178/202/182
f 171/190/171 170/189/170 178/202/182 179/203/183
f 172/191/172 171/190/171 179/203/183 180/204/184
f 4/205/9 172/191/172 180/204/184
f 166/194/174 165/193/173 173/206/185 174/198/178
f 179/203/183 178/202/182 186/207/186 187/208/187
f 180/204/184 179/203/183 187/208/187 188/209/188
f 4/210/9 180/204/184 188/209/188
f 174/198/178 173/206/185 181/211/189 182/212/190
f 175/199/179 174/198/178 182/212/190 183/213/191
f 176/200/180 175/199/179 183/213/191 184/214/192
f 177/201/181 176/200/180 184/214/192 185/215/193
f 178/202/182 177/201/181 185/215/193 186/207/186
f 184/214/192 183/213/191 191/216/194 192/217/195
f 185/215/193 184/214/192 192/217/195 193/218/196
f 186/207/186 185/215/193 193/218/196 194/219/197
f 187/208/187 186/207/186 194/219/197 195/220/198
f 188/209/188 187/208/187 195/220/198 196/221/199
f 4/222/9 188/209/188 196/221/199
f 182/212/190 181/211/189 189/223/200 190/224/201
f 183/213/191 182/212/190 190/224/201 191/216/194
f 196/225/199 195/226/198 203/227/202 204/228/203
f 4/229/9 196/225/199 204/228/203
f 190/230/201 189/231/200 197/232/204 198/233/205
f 191/234/194 190/230/201 198/233/205 199/235/206
f 192/236/195 191/234/194 199/235/206 200/237/207
f 193/238/196 192/236/195 200/237/207 201/239/208
f 194/240/197 193/238/196 201/239/208 202/241/209
f 195/226/198 194/240/197 202/241/209 203/227/202
f 200/237/207 199/235/206 207/242/210 208/243/211
f 201/239/208 200/237/207 208/243/211 209/244/212
f 202/241/209 201/239/208 209/244/212 210/245/213
f 203/227/202 202/241/209 210/245/213 211/246/214
f 204/228/203 203/227/202 211/246/214 212/247/215
f 4/248/9 204/228/203 212/247/215
f 198/233/205 197/232/204 205/249/216 206/250/217
f 199/235/206 198/233/205 206/250/217 207/242/210
f 212/247/215 211/246/214 219/251/218 220/252/219
f 4/253/9 212/247/215 220/252/219
f 206/250/217 205/249/216 213/254/220 214/255/221
f 207/242/210 206/250/217 214/255/221 215/256/222
f 208/243/211 207/242/210 215/256/222 216/257/223
f 209/244/212 208/243/211 216/257/223 217/258/224
f 210/245/213 209/244/212 217/258/224 218/259/225
f 211/246/214 210/245/213 218/259/225 219/251/218
f 217/258/224 216/257/223 224/260/226 225/261/227
f 218/259/225 217/258/224 225/261/227 226/262/228
f 219/251/218 218/259/225 226/262/228 227/263/229
f 220/252/219 219/251/218 227/263/229 228/264/230
f 4/265/9 220/252/219 228/264/230
f 214/255/221 213/254/220 221/266/231 222/267/232
f 215/256/222 214/255/221 222/267/232 223/268/233
f 216/257/223 215/256/222 223/268/233 224/260/226
f 548/111/234 567/269/235 350/106/236 358/111/237
f 4/270/9 228/264/230 236/271/238
f 222/267/232 221/266/231 229/272/239 230/273/240
f 547/274/241 568/275/242 478/254/243 486/266/244
f 223/268/233 222/267/232 230/273/240 231/276/245
f 549/277/246 569/278/247 310/59/248 318/63/249
f 224/260/226 223/268/233 231/276/245 232/279/250
f 553/141/251 573/129/252 374/129/253 382/141/254
f 225/261/227 224/260/226 232/279/250 233/280/255
f 563/281/256 571/282/257 502/283/258 510/284/259
f 226/262/228 225/261/227 233/280/255 234/285/260
f 550/211/261 570/286/262 438/206/263 446/211/264
f 227/263/229 226/262/228 234/285/260 235/287/265
f 552/164/266 572/159/267 398/159/268 406/164/269
f 228/264/230 227/263/229 235/287/265 236/271/238
f 554/288/270 575/289/271 462/232/272 470/249/273
f 558/290/274 566/291/275 270/12/276 278/24/277
f 234/285/260 233/280/255 241/292/278 242/293/279
f 555/294/280 578/295/281 294/42/282 302/47/283
f 235/287/265 234/285/260 242/293/279 243/296/284
f 551/297/285 574/298/286 334/89/287 342/94/288
f 236/271/238 235/287/265 243/296/284 244/299/289
f 566/291/275 576/300/290 262/11/291 270/12/276
f 557/301/292 547/274/241 486/266/244 494/272/293
f 4/302/9 236/271/238 244/299/289
f 230/273/240 229/272/239 237/283/294 238/303/295
f 560/124/296 548/111/234 358/111/237 366/124/297
f 231/276/245 230/273/240 238/303/295 239/304/298
f 556/305/299 577/188/300 422/188/301 430/193/302
f 232/279/250 231/276/245 239/304/298 240/306/303
f 561/307/304 549/277/246 318/63/249 326/77/305
f 233/280/255 232/279/250 240/306/303 241/292/278
f 238/303/295 237/283/294 245/284/306 246/308/307
f 562/309/308 550/211/261 446/211/264 454/223/309
f 239/304/298 238/303/295 246/308/307 247/310/310
f 567/269/235 551/297/285 342/94/288 350/106/236
f 240/306/303 239/304/298 247/310/310 248/311/311
f 564/176/312 552/164/266 406/164/269 414/176/313
f 241/292/278 240/306/303 248/311/311 249/312/314
f 559/146/315 553/141/251 382/141/254 390/146/316
f 242/293/279 241/292/278 249/312/314 250/313/317
f 568/275/242 554/288/270 470/249/273 478/254/243
f 243/296/284 242/293/279 250/313/317 251/314/318
f 569/278/247 555/294/280 302/47/283 310/59/248
f 244/299/289 243/296/284 251/314/318 252/315/319
f 570/286/262 556/305/299 430/193/302 438/206/263
f 571/282/257 557/301/292 494/272/293 502/283/258
f 4/316/9 244/299/289 252/315/319
f 250/313/317 249/312/314 254/2/2 255/1/1
f 565/317/320 558/290/274 278/24/277 286/29/321
f 251/314/318 250/313/317 255/1/1 256/5/5
f 572/159/267 559/146/315 390/146/316 398/159/268
f 252/315/319 251/314/318 256/5/5 257/7/7
f 573/129/252 560/124/296 366/124/297 374/129/253
f 574/298/286 561/307/304 326/77/305 334/89/287
f 4/318/9 252/315/319 257/7/7
f 246/308/307 245/284/306 1/11/11 2/10/10
f 575/289/271 562/231/308 454/231/309 462/232/272
f 247/310/310 246/308/307 2/10/10 253/14/14
f 576/300/290 563/281/256 510/284/259 262/11/291
f 248/311/311 247/310/310 253/14/14 3/16/16
f 577/188/300 564/176/312 414/176/313 422/188/301
f 249/312/314 248/311/311 3/16/16 254/2/2
f 578/295/281 565/317/320 286/29/321 294/42/282
f 260/319/322 513/320/323 266/321/324 267/322/325
f 514/323/326 260/319/322 267/322/325 268/324/327
f 261/325/328 514/323/326 268/324/327 269/326/329
f 262/11/291 261/325/328 269/326/329 270/12/276
f 511/327/330 258/328/331 263/329/332
f 512/330/333 511/327/330 263/329/332 264/331/334
f 259/332/335 512/330/333 264/331/334 265/333/336
f 513/320/323 259/332/335 265/333/336 266/321/324
f 266/321/324 265/333/336 273/334/337 274/335/338
f 267/322/325 266/321/324 274/335/338 275/336/339
f 268/324/327 267/322/325 275/336/339 276/337/340
f 269/326/329 268/324/327 276/337/340 277/338/341
f 270/12/276 269/326/329 277/338/341 278/24/277
f 263/329/332 258/339/331 271/340/342
f 264/331/334 263/329/332 271/340/342 272/341/343
f 265/333/336 264/331/334 272/341/343 273/334/337
f 278/24/277 277/338/341 285/342/344 286/29/321
f 271/340/342 258/343/331 279/344/345
f 272/341/343 271/340/342 279/344/345 280/345/346
f 273/334/337 272/341/343 280/345/346 281/346/347
f 274/335/338 273/334/337 281/346/347 282/347/348
f 275/336/339 274/335/338 282/347/348 283/348/349
f 276/337/340 275/336/339 283/348/349 284/349/350
f 277/338/341 276/337/340 284/349/350 285/342/344
f 283/348/349 282/347/348 290/350/351 291/351/352
f 284/349/350 283/348/349 291/351/352 292/352/353
f 285/342/344 284/349/350 292/352/353 293/353/354
f 286/29/321 285/342/344 293/353/354 294/42/282
f 279/344/345 258/354/331 287/355/355
f 280/345/346 279/344/345 287/355/355 288/356/356
f 281/346/347 280/345/346 288/356/356 289/357/357
f 282/347/348 281/346/347 289/357/357 290/350/351
f 287/355/355 258/358/331 295/359/358
f 288/356/356 287/355/355 295/359/358 296/360/359
f 289/357/357 288/356/356 296/360/359 297/361/360
f 290/350/351 289/357/357 297/361/360 298/362/361
f 291/351/352 290/350/351 298/362/361 299/363/362
f 292/352/353 291/351/352 299/363/362 300/364/363
f 293/353/354 292/352/353 300/364/363 301/365/364
f 294/42/282 293/353/354 301/365/364 302/47/283
f 299/363/362 298/362/361 306/366/365 307/367/366
f 300/364/363 299/363/362 307/367/366 308/368/367
f 301/365/364 300/364/363 308/368/367 309/369/368
f 302/47/283 301/365/364 309/369/368 310/59/248
f 295/359/358 258/370/331 303/371/369
f 296/360/359 295/359/358 303/371/369 304/372/370
f 297/361/360 296/360/359 304/372/370 305/373/371
f 298/362/361 297/361/360 305/373/371 306/366/365
f 304/372/370 303/371/369 311/374/372 312/375/373
f 305/373/371 304/372/370 312/375/373 313/376/374
f 306/366/365 305/373/371 313/376/374 314/377/375
f 307/367/366 306/366/365 314/377/375 315/378/376
f 308/368/367 307/367/366 315/378/376 316/379/377
f 309/369/368 308/368/367 316/379/377 317/380/378
f 310/59/248 309/369/368 317/380/378 318/63/249
f 303/371/369 258/381/331 311/374/372
f 316/379/377 315/378/376 323/382/379 324/383/380
f 317/380/378 316/379/377 324/383/380 325/384/381
f 318/63/249 317/380/378 325/384/381 326/77/305
f 311/374/372 258/385/331 319/386/382
f 312/375/373 311/374/372 319/386/382 320/387/383
f 313/376/374 312/375/373 320/387/383 321/388/384
f 314/377/375 313/376/374 321/388/384 322/389/385
f 315/378/376 314/377/375 322/389/385 323/382/379
f 321/388/384 320/387/383 328/390/386 329/391/387
f 322/389/385 321/388/384 329/391/387 330/392/388
f 323/382/379 322/389/385 330/392/388 331/393/389
f 324/383/380 323/382/379 331/393/389 332/394/390
f 325/384/381 324/383/380 332/394/390 333/395/391
f 326/77/305 325/384/381 333/395/391 334/89/287
f 319/386/382 258/396/331 327/397/392
f 320/387/383 319/386/382 327/397/392 328/390/386
f 333/395/391 332/394/390 340/398/393 341/399/394
f 334/89/287 333/395/391 341/399/394 342/94/288
f 327/397/392 258/400/331 335/401/395
f 328/390/386 327/397/392 335/401/395 336/402/396
f 329/391/387 328/390/386 336/402/396 337/403/397
f 330/392/388 329/391/387 337/403/397 338/404/398
f 331/393/389 330/392/388 338/404/398 339/405/399
f 332/394/390 331/393/389 339/405/399 340/398/393
f 337/403/397 336/402/396 344/406/400 345/407/401
f 338/404/398 337/403/397 345/407/401 346/408/402
f 339/405/399 338/404/398 346/408/402 347/409/403
f 340/398/393 339/405/399 347/409/403 348/410/404
f 341/399/394 340/398/393 348/410/404 349/411/405
f 342/94/288 341/399/394 349/411/405 350/106/236
f 335/401/395 258/412/331 343/413/406
f 336/402/396 335/401/395 343/413/406 344/406/400
f 349/411/405 348/410/404 356/414/407 357/415/408
f 350/106/236 349/411/405 357/415/408 358/111/237
f 343/413/406 258/416/331 351/417/409
f 344/406/400 343/413/406 351/417/409 352/418/410
f 345/407/401 344/406/400 352/418/410 353/419/411
f 346/408/402 345/407/401 353/419/411 354/420/412
f 347/409/403 346/408/402 354/420/412 355/421/413
f 348/410/404 347/409/403 355/421/413 356/414/407
f 354/420/412 353/419/411 361/422/414 362/423/415
f 355/421/413 354/420/412 362/423/415 363/424/416
f 356/414/407 355/421/413 363/424/416 364/425/417
f 357/415/408 356/414/407 364/425/417 365/426/418
f 358/111/237 357/415/408 365/426/418 366/124/297
f 351/417/409 258/427/331 359/428/419
f 352/418/410 351/417/409 359/428/419 360/429/420
f 353/419/411 352/418/410 360/429/420 361/422/414
f 366/124/297 365/426/418 373/430/421 374/129/253
f 359/428/419 258/431/331 367/432/422
f 360/429/420 359/428/419 367/432/422 368/433/423
f 361/422/414 360/429/420 368/433/423 369/434/424
f 362/423/415 361/422/414 369/434/424 370/435/425
f 363/424/416 362/423/415 370/435/425 371/436/426
f 364/425/417 363/424/416 371/436/426 372/437/427
f 365/426/418 364/425/417 372/437/427 373/430/421
f 370/435/425 369/434/424 377/438/428 378/439/429
f 371/436/426 370/435/425 378/439/429 379/440/430
f 372/437/427 371/436/426 379/440/430 380/441/431
f 373/430/421 372/437/427 380/441/431 381/442/432
f 374/129/253 373/430/421 381/442/432 382/141/254
f 367/432/422 258/443/331 375/444/433
f 368/433/423 367/432/422 375/444/433 376/445/434
f 369/434/424 368/433/423 376/445/434 377/438/428
f 382/141/254 381/442/432 389/446/435 390/146/316
f 375/444/433 258/447/331 383/448/436
f 376/445/434 375/444/433 383/448/436 384/449/437
f 377/438/428 376/445/434 384/449/437 385/450/438
f 378/439/429 377/438/428 385/450/438 386/451/439
f 379/440/430 378/439/429 386/451/439 387/452/440
f 380/441/431 379/440/430 387/452/440 388/453/441
f 381/442/432 380/441/431 388/453/441 389/446/435
f 387/452/440 386/451/439 394/454/442 395/455/443
f 388/453/441 387/452/440 395/455/443 396/456/444
f 389/446/435 388/453/441 396/456/444 397/457/445
f 390/146/316 389/446/435 397/457/445 398/159/268
f 383/448/436 258/458/331 391/459/446
f 384/449/437 383/448/436 391/459/446 392/460/447
f 385/450/438 384/449/437 392/460/447 393/461/448
f 386/451/439 385/450/438 393/461/448 394/454/442
f 392/460/447 391/459/446 399/462/449 400/463/450
f 393/461/448 392/460/447 400/463/450 401/464/451
f 394/454/442 393/461/448 401/464/451 402/465/452
f 395/455/443 394/454/442 402/465/452 403/466/453
f 396/456/444 395/455/443 403/466/453 404/467/454
f 397/457/445 396/456/444 404/467/454 405/468/455
f 398/159/268 397/457/445 405/468/455 406/164/269
f 391/459/446 258/469/331 399/462/449
f 404/467/454 403/466/453 411/470/456 412/471/457
f 405/468/455 404/467/454 412/471/457 413/472/458
f 406/164/269 405/468/455 413/472/458 414/176/313
f 399/462/449 258/473/331 407/474/459
f 400/463/450 399/462/449 407/474/459 408/475/460
f 401/464/451 400/463/450 408/475/460 409/476/461
f 402/465/452 401/464/451 409/476/461 410/477/462
f 403/466/453 402/465/452 410/477/462 411/470/456
f 408/475/460 407/474/459 415/478/463 416/479/464
f 409/476/461 408/475/460 416/479/464 417/480/465
f 410/477/462 409/476/461 417/480/465 418/481/466
f 411/470/456 410/477/462 418/481/466 419/482/467
f 412/471/457 411/470/456 419/482/467 420/483/468
f 413/472/458 412/471/457 420/483/468 421/484/469
f 414/176/313 413/472/458 421/484/469 422/188/301
f 407/474/459 258/485/331 415/478/463
f 420/483/468 419/482/467 427/486/470 428/487/471
f 421/484/469 420/483/468 428/487/471 429/488/472
f 422/188/301 421/484/469 429/488/472 430/193/302
f 415/478/463 258/489/331 423/490/473
f 416/479/464 415/478/463 423/490/473 424/491/474
f 417/480/465 416/479/464 424/491/474 425/492/475
f 418/481/466 417/480/465 425/492/475 426/493/476
f 419/482/467 418/481/466 426/493/476 427/486/470
f 425/492/475 424/491/474 432/494/477 433/495/478
f 426/493/476 425/492/475 433/495/478 434/496/479
f 427/486/470 426/493/476 434/496/479 435/497/480
f 428/487/471 427/486/470 435/497/480 436/498/481
f 429/488/472 428/487/471 436/498/481 437/499/482
f 430/193/302 429/488/472 437/499/482 438/206/263
f 423/490/473 258/500/331 431/501/483
f 424/491/474 423/490/473 431/501/483 432/494/477
f 437/499/482 436/498/481 444/502/484 445/503/485
f 438/206/263 437/499/482 445/503/485 446/211/264
f 431/501/483 258/504/331 439/505/486
f 432/494/477 431/501/483 439/505/486 440/506/487
f 433/495/478 432/494/477 440/506/487 441/507/488
f 434/496/479 433/495/478 441/507/488 442/508/489
f 435/497/480 434/496/479 442/508/489 443/509/490
f 436/498/481 435/497/480 443/509/490 444/502/484
f 441/507/488 440/506/487 448/510/491 449/511/492
f 442/508/489 441/507/488 449/511/492 450/512/493
f 443/509/490 442/508/489 450/512/493 451/513/494
f 444/502/484 443/509/490 451/513/494 452/514/495
f 445/503/485 444/502/484 452/514/495 453/515/496
f 446/211/264 445/503/485 453/515/496 454/223/309
f 439/505/486 258/516/331 447/517/497
f 440/506/487 439/505/486 447/517/497 448/510/491
f 453/518/496 452/519/495 460/520/498 461/521/499
f 454/231/309 453/518/496 461/521/499 462/232/272
f 447/522/497 258/523/331 455/524/500
f 448/525/491 447/522/497 455/524/500 456/526/501
f 449/527/492 448/525/491 456/526/501 457/528/502
f 450/529/493 449/527/492 457/528/502 458/530/503
f 451/531/494 450/529/493 458/530/503 459/532/504
f 452/519/495 451/531/494 459/532/504 460/520/498
f 458/530/503 457/528/502 465/533/505 466/534/506
f 459/532/504 458/530/503 466/534/506 467/535/507
f 460/520/498 459/532/504 467/535/507 468/536/508
f 461/521/499 460/520/498 468/536/508 469/537/509
f 462/232/272 461/521/499 469/537/509 470/249/273
f 455/524/500 258/538/331 463/539/510
f 456/526/501 455/524/500 463/539/510 464/540/511
f 457/528/502 456/526/501 464/540/511 465/533/505
f 470/249/273 469/537/509 477/541/512 478/254/243
f 463/539/510 258/542/331 471/543/513
f 464/540/511 463/539/510 471/543/513 472/544/514
f 465/533/505 464/540/511 472/544/514 473/545/515
f 466/534/506 465/533/505 473/545/515 474/546/516
f 467/535/507 466/534/506 474/546/516 475/547/517
f 468/536/508 467/535/507 475/547/517 476/548/518
f 469/537/509 468/536/508 476/548/518 477/541/512
f 475/547/517 474/546/516 482/549/519 483/550/520
f 476/548/518 475/547/517 483/550/520 484/551/521
f 477/541/512 476/548/518 484/551/521 485/552/522
f 478/254/243 477/541/512 485/552/522 486/266/244
f 471/543/513 258/553/331 479/554/523
f 472/544/514 471/543/513 479/554/523 480/555/524
f 473/545/515 472/544/514 480/555/524 481/556/525
f 474/546/516 473/545/515 481/556/525 482/549/519
f 479/554/523 258/557/331 487/558/526
f 480/555/524 479/554/523 487/558/526 488/559/527
f 481/556/525 480/555/524 488/559/527 489/560/528
f 482/549/519 481/556/525 489/560/528 490/561/529
f 483/550/520 482/549/519 490/561/529 491/562/530
f 484/551/521 483/550/520 491/562/530 492/563/531
f 485/552/522 484/551/521 492/563/531 493/564/532
f 486/266/244 485/552/522 493/564/532 494/272/293
f 491/562/530 490/561/529 498/565/533 499/566/534
f 492/563/531 491/562/530 499/566/534 500/567/535
f 493/564/532 492/563/531 500/567/535 501/568/536
f 494/272/293 493/564/532 501/568/536 502/283/258
f 487/558/526 258/569/331 495/570/537
f 488/559/527 487/558/526 495/570/537 496/571/538
f 489/560/528 488/559/527 496/571/538 497/572/539
f 490/561/529 489/560/528 497/572/539 498/565/533
f 496/571/538 495/570/537 503/573/540 504/574/541
f 497/572/539 496/571/538 504/574/541 505/575/542
f 498/565/533 497/572/539 505/575/542 506/576/543
f 499/566/534 498/565/533 506/576/543 507/577/544
f 500/567/535 499/566/534 507/577/544 508/578/545
f 501/568/536 500/567/535 508/578/545 509/579/546
f 502/283/258 501/568/536 509/579/546 510/284/259
f 495/570/537 258/580/331 503/573/540
f 508/578/545 507/577/544 260/319/322 514/323/326
f 509/579/546 508/578/545 514/323/326 261/325/328
f 510/284/259 509/579/546 261/325/328 262/11/291
f 503/573/540 258/581/331 511/327/330
f 504/574/541 503/573/540 511/327/330 512/330/333
f 505/575/542 504/574/541 512/330/333 259/332/335
f 506/576/543 505/575/542 259/332/335 513/320/323
f 507/577/544 506/576/543 513/320/323 260/319/322
f 29/42/39 21/29/27 546/29/320 545/42/281
f 157/188/169 149/176/158 544/582/312 543/583/300
f 1/11/11 245/284/306 542/284/256 541/11/290
f 197/232/204 189/231/200 540/231/308 539/289/271
f 69/89/81 61/77/70 538/584/304 537/585/286
f 109/129/116 101/124/112 536/586/296 535/587/252
f 133/159/143 125/146/131 534/588/315 533/589/267
f 21/29/27 13/24/23 532/24/274 546/29/320
f 237/283/294 229/272/239 531/272/292 530/283/257
f 173/206/185 165/193/173 529/590/299 528/591/262
f 45/59/54 37/47/43 527/47/280 526/59/247
f 213/254/220 205/249/216 525/249/270 524/592/242
f 125/146/131 117/141/127 523/141/251 534/588/315
f 149/176/158 141/164/147 522/593/266 544/582/312
f 85/106/96 77/94/85 521/297/285 520/269/235
f 189/223/200 181/211/189 519/594/261 540/223/308
f 61/77/70 53/63/58 518/63/246 538/584/304
f 165/193/173 157/188/169 543/583/300 529/590/299
f 101/124/112 93/111/100 517/111/234 536/586/296
f 229/272/239 221/266/231 516/266/241 531/272/292
f 5/12/12 1/11/11 541/11/290 515/12/275
f 77/94/85 69/89/81 537/585/286 521/297/285
f 37/47/43 29/42/39 545/42/281 527/47/280
f 13/24/23 5/12/12 515/12/275 532/24/274
f 205/249/216 197/232/204 539/289/271 525/249/270
f 141/164/147 133/159/143 533/589/267 522/593/266
f 181/211/189 173/206/185 528/591/262 519/594/261
f 245/284/306 237/283/294 530/283/257 542/284/256
f 117/141/127 109/129/116 535/587/252 523/141/251
f 53/63/58 45/59/54 526/59/247 518/63/246
f 221/266/231 213/254/220 524/592/242 516/266/241
f 93/111/100 85/106/96 520/269/235 517/111/234
f 591/42/281 610/29/320 565/317/320 578/295/281
f 590/583/300 609/582/312 564/176/312 577/188/300
f 589/595/290 608/284/256 563/281/256 576/300/290
f 588/596/271 607/597/308 562/231/308 575/289/271
f 587/598/286 606/584/304 561/307/304 574/298/286
f 586/587/252 605/124/296 560/124/296 573/129/252
f 585/589/267 604/599/315 559/146/315 572/159/267
f 610/29/320 603/24/274 558/290/274 565/317/320
f 584/282/257 602/272/292 557/301/292 571/282/257
f 583/591/262 601/590/299 556/305/299 570/286/262
f 582/59/247 600/47/280 555/294/280 569/278/247
f 581/592/242 599/600/270 554/288/270 568/275/242
f 604/599/315 598/141/251 553/141/251 559/146/315
f 609/582/312 597/593/266 552/164/266 564/176/312
f 580/601/235 596/602/285 551/297/285 567/269/235
f 607/603/308 595/594/261 550/211/261 562/309/308
f 606/584/304 594/604/246 549/277/246 561/307/304
f 601/590/299 590/583/300 577/188/300 556/305/299
f 605/124/296 593/111/234 548/111/234 560/124/296
f 602/272/292 592/266/241 547/274/241 557/301/292
f 579/12/275 589/595/290 576/300/290 566/291/275
f 596/602/285 587/598/286 574/298/286 551/297/285
f 600/47/280 591/42/281 578/295/281 555/294/280
f 603/24/274 579/12/275 566/291/275 558/290/274
f 599/600/270 588/596/271 575/289/271 554/288/270
f 597/593/266 585/589/267 572/159/267 552/164/266
f 595/594/261 583/591/262 570/286/262 550/211/261
f 608/284/256 584/282/257 571/282/257 563/281/256
f 598/141/251 586/587/252 573/129/252 553/141/251
f 594/604/246 582/59/247 569/278/247 549/277/246
f 592/266/241 581/592/242 568/275/242 547/274/241
f 593/111/234 580/601/235 567/269/235 548/111/234
f 517/111/547 520/269/548 580/601/548 593/111/547
f 516/266/549 524/592/550 581/592/551 592/266/552
f 518/63/553 526/59/554 582/59/555 594/604/553
f 523/141/556 535/587/557 586/587/558 598/141/556
f 542/284/559 530/283/560 584/282/560 608/284/559
f 519/594/561 528/591/562 583/591/563 595/594/564
f 522/593/565 533/589/566 585/589/566 597/593/567
f 525/249/568 539/289/569 588/596/569 599/600/570
f 532/24/571 515/12/572 579/12/572 603/24/571
f 527/47/573 545/42/574 591/42/575 600/47/576
f 521/297/577 537/585/578 587/598/579 596/602/580
f 515/12/572 541/11/581 589/595/581 579/12/572
f 531/272/582 516/266/549 592/266/552 602/272/583
f 536/586/584 517/111/547 593/111/547 605/124/584
f 529/590/585 543/583/586 590/583/586 601/590/585
f 538/584/587 518/63/553 594/604/553 606/584/587
f 540/223/588 519/594/561 595/594/564 607/603/588
f 520/269/548 521/297/577 596/602/580 580/601/548
f 544/582/589 522/593/565 597/593/567 609/582/589
f 534/588/590 523/141/556 598/141/556 604/599/590
f 524/592/550 525/249/568 599/600/570 581/592/551
f 526/59/554 527/47/573 600/47/576 582/59/555
f 528/591/562 529/590/585 601/590/585 583/591/563
f 530/283/560 531/272/582 602/272/583 584/282/560
f 546/29/591 532/24/571 603/24/571 610/29/592
f 533/589/566 534/588/590 604/599/590 585/589/566
f 535/587/557 536/586/584 605/124/584 586/587/558
f 537/585/578 538/584/587 606/584/587 587/598/579
f 539/289/569 540/231/588 607/597/588 588/596/569
f 541/11/581 542/284/559 608/284/559 589/595/581
f 543/583/586 544/582/589 609/582/589 590/583/586
f 545/42/574 546/29/591 610/29/592 591/42/575
