# Blender 5.1.2
# www.blender.org
mtllib Thorns.mtl
o Cone
v -0.462134 -0.000943 0.003979
v -0.371870 -0.000943 0.012870
v -0.285075 -0.000943 0.039199
v -0.205084 -0.000943 0.081955
v -0.134971 -0.000943 0.139494
v -0.077431 -0.000943 0.209607
v -0.034675 -0.000943 0.289598
v -0.008346 -0.000943 0.376393
v 0.000544 -0.000943 0.466657
v -0.008346 -0.000943 0.556921
v -0.034675 -0.000943 0.643716
v -0.077431 -0.000943 0.723707
v -0.134971 -0.000943 0.793819
v -0.205084 -0.000943 0.851359
v -0.285075 -0.000943 0.894115
v -0.371870 -0.000943 0.920444
v -0.462134 -0.000943 0.929334
v -0.552397 -0.000943 0.920444
v -0.639193 -0.000943 0.894115
v -0.719183 -0.000943 0.851359
v -0.789296 -0.000943 0.793819
v -0.846836 -0.000943 0.723707
v -0.889592 -0.000943 0.643716
v -0.915921 -0.000943 0.556921
v -0.924811 -0.000943 0.466657
v -0.915921 -0.000943 0.376393
v -0.889592 -0.000943 0.289598
v -0.846836 -0.000943 0.209607
v -0.789296 -0.000943 0.139494
v -0.719183 -0.000943 0.081955
v -0.639193 -0.000943 0.039199
v -0.552397 -0.000943 0.012870
v -0.462134 2.371399 0.466657
vn -0.0000 0.1914 -0.9815
vn -0.0000 1.0000 -0.0000
vn 0.1915 0.1914 -0.9626
vn 0.3756 0.1914 -0.9068
vn 0.5453 0.1914 -0.8161
vn 0.6940 0.1914 -0.6940
vn 0.8161 0.1914 -0.5453
vn 0.9068 0.1914 -0.3756
vn 0.9626 0.1914 -0.1915
vn 0.9815 0.1914 -0.0000
vn 0.9626 0.1914 0.1915
vn 0.9068 0.1914 0.3756
vn 0.8161 0.1914 0.5453
vn 0.6940 0.1914 0.6940
vn 0.5453 0.1914 0.8161
vn 0.3756 0.1914 0.9068
vn 0.1915 0.1914 0.9626
vn -0.0000 0.1914 0.9815
vn -0.1915 0.1914 0.9626
vn -0.3756 0.1914 0.9068
vn -0.5453 0.1914 0.8161
vn -0.6940 0.1914 0.6940
vn -0.8161 0.1914 0.5453
vn -0.9068 0.1914 0.3756
vn -0.9626 0.1914 0.1915
vn -0.9815 0.1914 -0.0000
vn -0.9626 0.1914 -0.1915
vn -0.9068 0.1914 -0.3756
vn -0.8161 0.1914 -0.5453
vn -0.6940 0.1914 -0.6940
vn -0.5453 0.1914 -0.8161
vn -0.3756 0.1914 -0.9068
vn -0.0000 -1.0000 -0.0000
vn -0.1915 0.1914 -0.9626
vt 0.250000 0.490000
vt 0.250000 0.250000
vt 0.296822 0.485388
vt 0.341844 0.471731
vt 0.383337 0.449553
vt 0.419706 0.419706
vt 0.449553 0.383337
vt 0.471731 0.341844
vt 0.485388 0.296822
vt 0.490000 0.250000
vt 0.485388 0.203178
vt 0.471731 0.158156
vt 0.449553 0.116663
vt 0.419706 0.080294
vt 0.383337 0.050447
vt 0.341844 0.028269
vt 0.296822 0.014612
vt 0.250000 0.010000
vt 0.203178 0.014612
vt 0.158156 0.028269
vt 0.116663 0.050447
vt 0.080294 0.080294
vt 0.050447 0.116663
vt 0.028269 0.158156
vt 0.014612 0.203178
vt 0.010000 0.250000
vt 0.014612 0.296822
vt 0.028269 0.341844
vt 0.050447 0.383337
vt 0.080294 0.419706
vt 0.116663 0.449553
vt 0.158156 0.471731
vt 0.750000 0.490000
vt 0.796822 0.485388
vt 0.841844 0.471731
vt 0.883337 0.449553
vt 0.919706 0.419706
vt 0.949553 0.383337
vt 0.971731 0.341844
vt 0.985388 0.296822
vt 0.990000 0.250000
vt 0.985388 0.203178
vt 0.971731 0.158156
vt 0.949553 0.116663
vt 0.919706 0.080294
vt 0.883337 0.050447
vt 0.841844 0.028269
vt 0.796822 0.014612
vt 0.750000 0.010000
vt 0.703178 0.014612
vt 0.658156 0.028269
vt 0.616663 0.050447
vt 0.580294 0.080294
vt 0.550447 0.116663
vt 0.528269 0.158156
vt 0.514612 0.203178
vt 0.510000 0.250000
vt 0.514612 0.296822
vt 0.528269 0.341844
vt 0.550447 0.383337
vt 0.580294 0.419706
vt 0.616663 0.449553
vt 0.658156 0.471731
vt 0.703178 0.485388
vt 0.203178 0.485388
s 1
f 1/1/1 33/2/2 2/3/3
f 2/3/3 33/2/2 3/4/4
f 3/4/4 33/2/2 4/5/5
f 4/5/5 33/2/2 5/6/6
f 5/6/6 33/2/2 6/7/7
f 6/7/7 33/2/2 7/8/8
f 7/8/8 33/2/2 8/9/9
f 8/9/9 33/2/2 9/10/10
f 9/10/10 33/2/2 10/11/11
f 10/11/11 33/2/2 11/12/12
f 11/12/12 33/2/2 12/13/13
f 12/13/13 33/2/2 13/14/14
f 13/14/14 33/2/2 14/15/15
f 14/15/15 33/2/2 15/16/16
f 15/16/16 33/2/2 16/17/17
f 16/17/17 33/2/2 17/18/18
f 17/18/18 33/2/2 18/19/19
f 18/19/19 33/2/2 19/20/20
f 19/20/20 33/2/2 20/21/21
f 20/21/21 33/2/2 21/22/22
f 21/22/22 33/2/2 22/23/23
f 22/23/23 33/2/2 23/24/24
f 23/24/24 33/2/2 24/25/25
f 24/25/25 33/2/2 25/26/26
f 25/26/26 33/2/2 26/27/27
f 26/27/27 33/2/2 27/28/28
f 27/28/28 33/2/2 28/29/29
f 28/29/29 33/2/2 29/30/30
f 29/30/30 33/2/2 30/31/31
f 30/31/31 33/2/2 31/32/32
f 1/33/33 2/34/33 3/35/33 4/36/33 5/37/33 6/38/33 7/39/33 8/40/33 9/41/33 10/42/33 11/43/33 12/44/33 13/45/33 14/46/33 15/47/33 16/48/33 17/49/33 18/50/33 19/51/33 20/52/33 21/53/33 22/54/33 23/55/33 24/56/33 25/57/33 26/58/33 27/59/33 28/60/33 29/61/33 30/62/33 31/63/33 32/64/33
f 31/32/32 33/2/2 32/65/34
f 32/65/34 33/2/2 1/1/1
o Cone.001
v -0.462134 -0.000943 -0.927680
v -0.371870 -0.000943 -0.918790
v -0.285075 -0.000943 -0.892461
v -0.205084 -0.000943 -0.849705
v -0.134971 -0.000943 -0.792165
v -0.077431 -0.000943 -0.722053
v -0.034675 -0.000943 -0.642062
v -0.008346 -0.000943 -0.555267
v 0.000544 -0.000943 -0.465003
v -0.008346 -0.000943 -0.374739
v -0.034675 -0.000943 -0.287944
v -0.077431 -0.000943 -0.207953
v -0.134971 -0.000943 -0.137841
v -0.205084 -0.000943 -0.080301
v -0.285075 -0.000943 -0.037545
v -0.371870 -0.000943 -0.011216
v -0.462134 -0.000943 -0.002326
v -0.552397 -0.000943 -0.011216
v -0.639193 -0.000943 -0.037545
v -0.719183 -0.000943 -0.080301
v -0.789296 -0.000943 -0.137841
v -0.846836 -0.000943 -0.207953
v -0.889592 -0.000943 -0.287944
v -0.915921 -0.000943 -0.374739
v -0.924811 -0.000943 -0.465003
v -0.915921 -0.000943 -0.555267
v -0.889592 -0.000943 -0.642062
v -0.846836 -0.000943 -0.722053
v -0.789296 -0.000943 -0.792165
v -0.719183 -0.000943 -0.849705
v -0.639193 -0.000943 -0.892461
v -0.552397 -0.000943 -0.918790
v -0.462134 2.371399 -0.465003
vn -0.0000 0.1914 -0.9815
vn -0.0000 1.0000 -0.0000
vn 0.1915 0.1914 -0.9626
vn 0.3756 0.1914 -0.9068
vn 0.5453 0.1914 -0.8161
vn 0.6940 0.1914 -0.6940
vn 0.8161 0.1914 -0.5453
vn 0.9068 0.1914 -0.3756
vn 0.9626 0.1914 -0.1915
vn 0.9815 0.1914 -0.0000
vn 0.9626 0.1914 0.1915
vn 0.9068 0.1914 0.3756
vn 0.8161 0.1914 0.5453
vn 0.6940 0.1914 0.6940
vn 0.5453 0.1914 0.8161
vn 0.3756 0.1914 0.9068
vn 0.1915 0.1914 0.9626
vn -0.0000 0.1914 0.9815
vn -0.1915 0.1914 0.9626
vn -0.3756 0.1914 0.9068
vn -0.5453 0.1914 0.8161
vn -0.6940 0.1914 0.6940
vn -0.8161 0.1914 0.5453
vn -0.9068 0.1914 0.3756
vn -0.9626 0.1914 0.1915
vn -0.9815 0.1914 -0.0000
vn -0.9626 0.1914 -0.1915
vn -0.9068 0.1914 -0.3756
vn -0.8161 0.1914 -0.5453
vn -0.6940 0.1914 -0.6940
vn -0.5453 0.1914 -0.8161
vn -0.3756 0.1914 -0.9068
vn -0.0000 -1.0000 -0.0000
vn -0.1915 0.1914 -0.9626
vt 0.250000 0.490000
vt 0.250000 0.250000
vt 0.296822 0.485388
vt 0.341844 0.471731
vt 0.383337 0.449553
vt 0.419706 0.419706
vt 0.449553 0.383337
vt 0.471731 0.341844
vt 0.485388 0.296822
vt 0.490000 0.250000
vt 0.485388 0.203178
vt 0.471731 0.158156
vt 0.449553 0.116663
vt 0.419706 0.080294
vt 0.383337 0.050447
vt 0.341844 0.028269
vt 0.296822 0.014612
vt 0.250000 0.010000
vt 0.203178 0.014612
vt 0.158156 0.028269
vt 0.116663 0.050447
vt 0.080294 0.080294
vt 0.050447 0.116663
vt 0.028269 0.158156
vt 0.014612 0.203178
vt 0.010000 0.250000
vt 0.014612 0.296822
vt 0.028269 0.341844
vt 0.050447 0.383337
vt 0.080294 0.419706
vt 0.116663 0.449553
vt 0.158156 0.471731
vt 0.750000 0.490000
vt 0.796822 0.485388
vt 0.841844 0.471731
vt 0.883337 0.449553
vt 0.919706 0.419706
vt 0.949553 0.383337
vt 0.971731 0.341844
vt 0.985388 0.296822
vt 0.990000 0.250000
vt 0.985388 0.203178
vt 0.971731 0.158156
vt 0.949553 0.116663
vt 0.919706 0.080294
vt 0.883337 0.050447
vt 0.841844 0.028269
vt 0.796822 0.014612
vt 0.750000 0.010000
vt 0.703178 0.014612
vt 0.658156 0.028269
vt 0.616663 0.050447
vt 0.580294 0.080294
vt 0.550447 0.116663
vt 0.528269 0.158156
vt 0.514612 0.203178
vt 0.510000 0.250000
vt 0.514612 0.296822
vt 0.528269 0.341844
vt 0.550447 0.383337
vt 0.580294 0.419706
vt 0.616663 0.449553
vt 0.658156 0.471731
vt 0.703178 0.485388
vt 0.203178 0.485388
s 1
f 34/66/35 66/67/36 35/68/37
f 35/68/37 66/67/36 36/69/38
f 36/69/38 66/67/36 37/70/39
f 37/70/39 66/67/36 38/71/40
f 38/71/40 66/67/36 39/72/41
f 39/72/41 66/67/36 40/73/42
f 40/73/42 66/67/36 41/74/43
f 41/74/43 66/67/36 42/75/44
f 42/75/44 66/67/36 43/76/45
f 43/76/45 66/67/36 44/77/46
f 44/77/46 66/67/36 45/78/47
f 45/78/47 66/67/36 46/79/48
f 46/79/48 66/67/36 47/80/49
f 47/80/49 66/67/36 48/81/50
f 48/81/50 66/67/36 49/82/51
f 49/82/51 66/67/36 50/83/52
f 50/83/52 66/67/36 51/84/53
f 51/84/53 66/67/36 52/85/54
f 52/85/54 66/67/36 53/86/55
f 53/86/55 66/67/36 54/87/56
f 54/87/56 66/67/36 55/88/57
f 55/88/57 66/67/36 56/89/58
f 56/89/58 66/67/36 57/90/59
f 57/90/59 66/67/36 58/91/60
f 58/91/60 66/67/36 59/92/61
f 59/92/61 66/67/36 60/93/62
f 60/93/62 66/67/36 61/94/63
f 61/94/63 66/67/36 62/95/64
f 62/95/64 66/67/36 63/96/65
f 63/96/65 66/67/36 64/97/66
f 34/98/67 35/99/67 36/100/67 37/101/67 38/102/67 39/103/67 40/104/67 41/105/67 42/106/67 43/107/67 44/108/67 45/109/67 46/110/67 47/111/67 48/112/67 49/113/67 50/114/67 51/115/67 52/116/67 53/117/67 54/118/67 55/119/67 56/120/67 57/121/67 58/122/67 59/123/67 60/124/67 61/125/67 62/126/67 63/127/67 64/128/67 65/129/67
f 64/97/66 66/67/36 65/130/68
f 65/130/68 66/67/36 34/66/35
o Cone.002
v 0.467163 -0.000943 -0.927680
v 0.557427 -0.000943 -0.918790
v 0.644222 -0.000943 -0.892461
v 0.724212 -0.000943 -0.849705
v 0.794325 -0.000943 -0.792165
v 0.851865 -0.000943 -0.722053
v 0.894621 -0.000943 -0.642062
v 0.920950 -0.000943 -0.555267
v 0.929840 -0.000943 -0.465003
v 0.920950 -0.000943 -0.374739
v 0.894621 -0.000943 -0.287944
v 0.851865 -0.000943 -0.207953
v 0.794325 -0.000943 -0.137841
v 0.724212 -0.000943 -0.080301
v 0.644222 -0.000943 -0.037545
v 0.557427 -0.000943 -0.011216
v 0.467163 -0.000943 -0.002326
v 0.376899 -0.000943 -0.011216
v 0.290104 -0.000943 -0.037545
v 0.210113 -0.000943 -0.080301
v 0.140000 -0.000943 -0.137841
v 0.082460 -0.000943 -0.207953
v 0.039704 -0.000943 -0.287944
v 0.013375 -0.000943 -0.374739
v 0.004485 -0.000943 -0.465003
v 0.013375 -0.000943 -0.555267
v 0.039704 -0.000943 -0.642062
v 0.082460 -0.000943 -0.722053
v 0.140000 -0.000943 -0.792165
v 0.210113 -0.000943 -0.849705
v 0.290104 -0.000943 -0.892461
v 0.376899 -0.000943 -0.918790
v 0.467163 2.371399 -0.465003
vn -0.0000 0.1914 -0.9815
vn -0.0000 1.0000 -0.0000
vn 0.1915 0.1914 -0.9626
vn 0.3756 0.1914 -0.9068
vn 0.5453 0.1914 -0.8161
vn 0.6940 0.1914 -0.6940
vn 0.8161 0.1914 -0.5453
vn 0.9068 0.1914 -0.3756
vn 0.9626 0.1914 -0.1915
vn 0.9815 0.1914 -0.0000
vn 0.9626 0.1914 0.1915
vn 0.9068 0.1914 0.3756
vn 0.8161 0.1914 0.5453
vn 0.6940 0.1914 0.6940
vn 0.5453 0.1914 0.8161
vn 0.3756 0.1914 0.9068
vn 0.1915 0.1914 0.9626
vn -0.0000 0.1914 0.9815
vn -0.1915 0.1914 0.9626
vn -0.3756 0.1914 0.9068
vn -0.5453 0.1914 0.8161
vn -0.6940 0.1914 0.6940
vn -0.8161 0.1914 0.5453
vn -0.9068 0.1914 0.3756
vn -0.9626 0.1914 0.1915
vn -0.9815 0.1914 -0.0000
vn -0.9626 0.1914 -0.1915
vn -0.9068 0.1914 -0.3756
vn -0.8161 0.1914 -0.5453
vn -0.6940 0.1914 -0.6940
vn -0.5453 0.1914 -0.8161
vn -0.3756 0.1914 -0.9068
vn -0.0000 -1.0000 -0.0000
vn -0.1915 0.1914 -0.9626
vt 0.250000 0.490000
vt 0.250000 0.250000
vt 0.296822 0.485388
vt 0.341844 0.471731
vt 0.383337 0.449553
vt 0.419706 0.419706
vt 0.449553 0.383337
vt 0.471731 0.341844
vt 0.485388 0.296822
vt 0.490000 0.250000
vt 0.485388 0.203178
vt 0.471731 0.158156
vt 0.449553 0.116663
vt 0.419706 0.080294
vt 0.383337 0.050447
vt 0.341844 0.028269
vt 0.296822 0.014612
vt 0.250000 0.010000
vt 0.203178 0.014612
vt 0.158156 0.028269
vt 0.116663 0.050447
vt 0.080294 0.080294
vt 0.050447 0.116663
vt 0.028269 0.158156
vt 0.014612 0.203178
vt 0.010000 0.250000
vt 0.014612 0.296822
vt 0.028269 0.341844
vt 0.050447 0.383337
vt 0.080294 0.419706
vt 0.116663 0.449553
vt 0.158156 0.471731
vt 0.750000 0.490000
vt 0.796822 0.485388
vt 0.841844 0.471731
vt 0.883337 0.449553
vt 0.919706 0.419706
vt 0.949553 0.383337
vt 0.971731 0.341844
vt 0.985388 0.296822
vt 0.990000 0.250000
vt 0.985388 0.203178
vt 0.971731 0.158156
vt 0.949553 0.116663
vt 0.919706 0.080294
vt 0.883337 0.050447
vt 0.841844 0.028269
vt 0.796822 0.014612
vt 0.750000 0.010000
vt 0.703178 0.014612
vt 0.658156 0.028269
vt 0.616663 0.050447
vt 0.580294 0.080294
vt 0.550447 0.116663
vt 0.528269 0.158156
vt 0.514612 0.203178
vt 0.510000 0.250000
vt 0.514612 0.296822
vt 0.528269 0.341844
vt 0.550447 0.383337
vt 0.580294 0.419706
vt 0.616663 0.449553
vt 0.658156 0.471731
vt 0.703178 0.485388
vt 0.203178 0.485388
s 1
f 67/131/69 99/132/70 68/133/71
f 68/133/71 99/132/70 69/134/72
f 69/134/72 99/132/70 70/135/73
f 70/135/73 99/132/70 71/136/74
f 71/136/74 99/132/70 72/137/75
f 72/137/75 99/132/70 73/138/76
f 73/138/76 99/132/70 74/139/77
f 74/139/77 99/132/70 75/140/78
f 75/140/78 99/132/70 76/141/79
f 76/141/79 99/132/70 77/142/80
f 77/142/80 99/132/70 78/143/81
f 78/143/81 99/132/70 79/144/82
f 79/144/82 99/132/70 80/145/83
f 80/145/83 99/132/70 81/146/84
f 81/146/84 99/132/70 82/147/85
f 82/147/85 99/132/70 83/148/86
f 83/148/86 99/132/70 84/149/87
f 84/149/87 99/132/70 85/150/88
f 85/150/88 99/132/70 86/151/89
f 86/151/89 99/132/70 87/152/90
f 87/152/90 99/132/70 88/153/91
f 88/153/91 99/132/70 89/154/92
f 89/154/92 99/132/70 90/155/93
f 90/155/93 99/132/70 91/156/94
f 91/156/94 99/132/70 92/157/95
f 92/157/95 99/132/70 93/158/96
f 93/158/96 99/132/70 94/159/97
f 94/159/97 99/132/70 95/160/98
f 95/160/98 99/132/70 96/161/99
f 96/161/99 99/132/70 97/162/100
f 67/163/101 68/164/101 69/165/101 70/166/101 71/167/101 72/168/101 73/169/101 74/170/101 75/171/101 76/172/101 77/173/101 78/174/101 79/175/101 80/176/101 81/177/101 82/178/101 83/179/101 84/180/101 85/181/101 86/182/101 87/183/101 88/184/101 89/185/101 90/186/101 91/187/101 92/188/101 93/189/101 94/190/101 95/191/101 96/192/101 97/193/101 98/194/101
f 97/162/100 99/132/70 98/195/102
f 98/195/102 99/132/70 67/131/69
o Cone.003
v 0.467163 -0.000943 0.003979
v 0.557427 -0.000943 0.012870
v 0.644222 -0.000943 0.039199
v 0.724212 -0.000943 0.081955
v 0.794325 -0.000943 0.139494
v 0.851865 -0.000943 0.209607
v 0.894621 -0.000943 0.289598
v 0.920950 -0.000943 0.376393
v 0.929840 -0.000943 0.466657
v 0.920950 -0.000943 0.556921
v 0.894621 -0.000943 0.643716
v 0.851865 -0.000943 0.723707
v 0.794325 -0.000943 0.793819
v 0.724212 -0.000943 0.851359
v 0.644222 -0.000943 0.894115
v 0.557427 -0.000943 0.920444
v 0.467163 -0.000943 0.929334
v 0.376899 -0.000943 0.920444
v 0.290104 -0.000943 0.894115
v 0.210113 -0.000943 0.851359
v 0.140000 -0.000943 0.793819
v 0.082460 -0.000943 0.723707
v 0.039704 -0.000943 0.643716
v 0.013375 -0.000943 0.556921
v 0.004485 -0.000943 0.466657
v 0.013375 -0.000943 0.376393
v 0.039704 -0.000943 0.289598
v 0.082460 -0.000943 0.209607
v 0.140000 -0.000943 0.139494
v 0.210113 -0.000943 0.081955
v 0.290104 -0.000943 0.039199
v 0.376899 -0.000943 0.012870
v 0.467163 2.371399 0.466657
vn -0.0000 0.1914 -0.9815
vn -0.0000 1.0000 -0.0000
vn 0.1915 0.1914 -0.9626
vn 0.3756 0.1914 -0.9068
vn 0.5453 0.1914 -0.8161
vn 0.6940 0.1914 -0.6940
vn 0.8161 0.1914 -0.5453
vn 0.9068 0.1914 -0.3756
vn 0.9626 0.1914 -0.1915
vn 0.9815 0.1914 -0.0000
vn 0.9626 0.1914 0.1915
vn 0.9068 0.1914 0.3756
vn 0.8161 0.1914 0.5453
vn 0.6940 0.1914 0.6940
vn 0.5453 0.1914 0.8161
vn 0.3756 0.1914 0.9068
vn 0.1915 0.1914 0.9626
vn -0.0000 0.1914 0.9815
vn -0.1915 0.1914 0.9626
vn -0.3756 0.1914 0.9068
vn -0.5453 0.1914 0.8161
vn -0.6940 0.1914 0.6940
vn -0.8161 0.1914 0.5453
vn -0.9068 0.1914 0.3756
vn -0.9626 0.1914 0.1915
vn -0.9815 0.1914 -0.0000
vn -0.9626 0.1914 -0.1915
vn -0.9068 0.1914 -0.3756
vn -0.8161 0.1914 -0.5453
vn -0.6940 0.1914 -0.6940
vn -0.5453 0.1914 -0.8161
vn -0.3756 0.1914 -0.9068
vn -0.0000 -1.0000 -0.0000
vn -0.1915 0.1914 -0.9626
vt 0.250000 0.490000
vt 0.250000 0.250000
vt 0.296822 0.485388
vt 0.341844 0.471731
vt 0.383337 0.449553
vt 0.419706 0.419706
vt 0.449553 0.383337
vt 0.471731 0.341844
vt 0.485388 0.296822
vt 0.490000 0.250000
vt 0.485388 0.203178
vt 0.471731 0.158156
vt 0.449553 0.116663
vt 0.419706 0.080294
vt 0.383337 0.050447
vt 0.341844 0.028269
vt 0.296822 0.014612
vt 0.250000 0.010000
vt 0.203178 0.014612
vt 0.158156 0.028269
vt 0.116663 0.050447
vt 0.080294 0.080294
vt 0.050447 0.116663
vt 0.028269 0.158156
vt 0.014612 0.203178
vt 0.010000 0.250000
vt 0.014612 0.296822
vt 0.028269 0.341844
vt 0.050447 0.383337
vt 0.080294 0.419706
vt 0.116663 0.449553
vt 0.158156 0.471731
vt 0.750000 0.490000
vt 0.796822 0.485388
vt 0.841844 0.471731
vt 0.883337 0.449553
vt 0.919706 0.419706
vt 0.949553 0.383337
vt 0.971731 0.341844
vt 0.985388 0.296822
vt 0.990000 0.250000
vt 0.985388 0.203178
vt 0.971731 0.158156
vt 0.949553 0.116663
vt 0.919706 0.080294
vt 0.883337 0.050447
vt 0.841844 0.028269
vt 0.796822 0.014612
vt 0.750000 0.010000
vt 0.703178 0.014612
vt 0.658156 0.028269
vt 0.616663 0.050447
vt 0.580294 0.080294
vt 0.550447 0.116663
vt 0.528269 0.158156
vt 0.514612 0.203178
vt 0.510000 0.250000
vt 0.514612 0.296822
vt 0.528269 0.341844
vt 0.550447 0.383337
vt 0.580294 0.419706
vt 0.616663 0.449553
vt 0.658156 0.471731
vt 0.703178 0.485388
vt 0.203178 0.485388
s 1
f 100/196/103 132/197/104 101/198/105
f 101/198/105 132/197/104 102/199/106
f 102/199/106 132/197/104 103/200/107
f 103/200/107 132/197/104 104/201/108
f 104/201/108 132/197/104 105/202/109
f 105/202/109 132/197/104 106/203/110
f 106/203/110 132/197/104 107/204/111
f 107/204/111 132/197/104 108/205/112
f 108/205/112 132/197/104 109/206/113
f 109/206/113 132/197/104 110/207/114
f 110/207/114 132/197/104 111/208/115
f 111/208/115 132/197/104 112/209/116
f 112/209/116 132/197/104 113/210/117
f 113/210/117 132/197/104 114/211/118
f 114/211/118 132/197/104 115/212/119
f 115/212/119 132/197/104 116/213/120
f 116/213/120 132/197/104 117/214/121
f 117/214/121 132/197/104 118/215/122
f 118/215/122 132/197/104 119/216/123
f 119/216/123 132/197/104 120/217/124
f 120/217/124 132/197/104 121/218/125
f 121/218/125 132/197/104 122/219/126
f 122/219/126 132/197/104 123/220/127
f 123/220/127 132/197/104 124/221/128
f 124/221/128 132/197/104 125/222/129
f 125/222/129 132/197/104 126/223/130
f 126/223/130 132/197/104 127/224/131
f 127/224/131 132/197/104 128/225/132
f 128/225/132 132/197/104 129/226/133
f 129/226/133 132/197/104 130/227/134
f 100/228/135 101/229/135 102/230/135 103/231/135 104/232/135 105/233/135 106/234/135 107/235/135 108/236/135 109/237/135 110/238/135 111/239/135 112/240/135 113/241/135 114/242/135 115/243/135 116/244/135 117/245/135 118/246/135 119/247/135 120/248/135 121/249/135 122/250/135 123/251/135 124/252/135 125/253/135 126/254/135 127/255/135 128/256/135 129/257/135 130/258/135 131/259/135
f 130/227/134 132/197/104 131/260/136
f 131/260/136 132/197/104 100/196/103
